<svg width="284" height="174" viewBox="0 0 284 174" fill="none" xmlns="http://www.w3.org/2000/svg">
<path d="M255.419 1.96732H28.426C13.6556 1.96732 1.68188 13.9411 1.68188 28.7114V145.814C1.68188 160.584 13.6556 172.558 28.426 172.558H255.419C270.189 172.558 282.163 160.584 282.163 145.814V28.7114C282.163 13.9411 270.189 1.96732 255.419 1.96732Z" fill="white"/>
<path d="M255.419 173.558H28.4263C21.0706 173.55 14.0186 170.624 8.81741 165.423C3.61619 160.221 0.690471 153.169 0.682129 145.814V28.7113C0.690471 21.3556 3.61619 14.3037 8.81741 9.10243C14.0186 3.9012 21.0706 0.97549 28.4263 0.967148H255.419C262.775 0.975594 269.827 3.90136 275.028 9.10258C280.229 14.3038 283.155 21.3557 283.163 28.7113V145.814C283.155 153.169 280.229 160.221 275.028 165.423C269.827 170.624 262.775 173.55 255.419 173.558ZM28.4263 2.96715C21.5985 2.96716 15.0504 5.6795 10.2224 10.5075C5.39446 15.3354 2.68213 21.8835 2.68213 28.7113V72.481C2.68213 98.7578 13.1206 123.958 31.7011 142.539C50.2817 161.12 75.4823 171.558 101.759 171.558H255.419C262.247 171.558 268.795 168.846 273.623 164.018C278.451 159.19 281.163 152.642 281.163 145.814V28.7113C281.163 25.3305 280.497 21.9829 279.203 18.8595C277.91 15.7361 276.013 12.898 273.623 10.5075C271.232 8.1169 268.394 6.2206 265.271 4.92683C262.147 3.63307 258.8 2.96718 255.419 2.96718L28.4263 2.96715Z" fill="#3F3D56"/>
<path d="M88.4226 126.263H35.4226C33.4896 126.263 31.9226 127.83 31.9226 129.763C31.9226 131.696 33.4896 133.263 35.4226 133.263H88.4226C90.3556 133.263 91.9226 131.696 91.9226 129.763C91.9226 127.83 90.3556 126.263 88.4226 126.263Z" fill="#00BFA6"/>
<path d="M248.423 116.763H211.423C209.49 116.763 207.923 118.33 207.923 120.263V139.263C207.923 141.196 209.49 142.763 211.423 142.763H248.423C250.356 142.763 251.923 141.196 251.923 139.263V120.263C251.923 118.33 250.356 116.763 248.423 116.763Z" fill="#00BFA6"/>
<path d="M49.9226 67.7626C59.8637 67.7626 67.9226 59.7037 67.9226 49.7626C67.9226 39.8214 59.8637 31.7626 49.9226 31.7626C39.9815 31.7626 31.9226 39.8214 31.9226 49.7626C31.9226 59.7037 39.9815 67.7626 49.9226 67.7626Z" fill="#00BFA6"/>
<path d="M74.0721 171.247L27.1942 170.247C21.3628 170.239 15.7729 167.918 11.6502 163.794C7.52753 159.67 5.20867 154.079 5.20215 148.247L3.20215 99.235C8.95823 139.193 31.078 164.54 74.0721 171.247Z" fill="#00BFA6"/>
</svg>
