<svg width="328" height="283" viewBox="0 0 328 283" fill="none" xmlns="http://www.w3.org/2000/svg">
<path d="M117.654 125.461C128.894 105.686 150.336 90.5013 173.034 91.9641C156.291 110.173 146.528 133.717 145.472 158.432C145.1 167.964 145.678 178.606 139.349 185.744C135.411 190.186 129.392 192.337 123.473 192.788C117.555 193.239 111.638 192.17 105.799 191.105L104.382 191.54C103.843 168.799 106.413 145.236 117.654 125.461Z" fill="#F0F0F0"/>
<path d="M173.068 92.4402C156.283 100.521 141.971 114.017 133.185 130.477C131.286 134.035 129.668 137.81 128.963 141.802C128.257 145.795 128.75 149.597 130.114 153.389C131.361 156.857 133.038 160.259 133.42 163.969C133.823 167.88 132.384 171.537 129.794 174.439C126.626 177.989 122.37 180.19 118.134 182.197C113.43 184.425 108.509 186.665 105.178 190.824C104.774 191.328 104.016 190.672 104.419 190.169C110.215 182.933 120.137 181.573 127.017 175.744C130.227 173.024 132.638 169.32 132.485 164.98C132.352 161.185 130.626 157.675 129.334 154.175C127.976 150.5 127.299 146.805 127.786 142.887C128.284 138.879 129.757 135.032 131.557 131.441C135.617 123.341 141.173 115.905 147.538 109.477C154.852 102.088 163.377 96.0054 172.743 91.4915C173.323 91.2123 173.644 92.1629 173.068 92.4402Z" fill="white"/>
<path d="M135.759 124.976C133.185 123.094 131.365 120.359 130.622 117.259C129.879 114.159 130.262 110.896 131.703 108.052C131.997 107.477 132.903 107.907 132.609 108.482C131.262 111.127 130.906 114.167 131.603 117.053C132.301 119.938 134.007 122.479 136.414 124.217C136.936 124.595 136.278 125.352 135.759 124.976Z" fill="white"/>
<path d="M129.25 151.715C135.698 150.772 141.554 147.434 145.65 142.366C146.055 141.864 146.814 142.519 146.409 143.021C142.136 148.287 136.035 151.749 129.324 152.715C128.684 152.806 128.614 151.806 129.25 151.715V151.715Z" fill="white"/>
<path d="M155.348 103.322C156.192 104.258 157.255 104.969 158.441 105.392C159.628 105.815 160.901 105.937 162.147 105.746C162.785 105.646 162.854 106.647 162.22 106.746C160.843 106.95 159.437 106.814 158.125 106.349C156.813 105.885 155.634 105.106 154.693 104.081C154.596 103.992 154.536 103.869 154.527 103.738C154.517 103.606 154.558 103.476 154.641 103.374C154.728 103.274 154.851 103.212 154.983 103.203C155.116 103.193 155.247 103.236 155.348 103.322Z" fill="white"/>
<path d="M218.196 154.348C217.799 154.422 217.402 154.495 217.002 154.577C211.672 155.593 206.434 157.042 201.339 158.907C200.942 159.045 200.543 159.19 200.151 159.339C187.924 163.964 176.661 170.819 166.936 179.555C163.069 183.035 159.472 186.804 156.177 190.83C151.627 196.39 147.136 202.78 141.19 206.405C140.574 206.79 139.935 207.137 139.276 207.443L105.022 193.234C104.961 193.163 104.896 193.099 104.834 193.028L103.44 192.523C103.595 192.303 103.761 192.079 103.917 191.859C104.006 191.732 104.104 191.607 104.193 191.479C104.255 191.395 104.318 191.311 104.369 191.232C104.39 191.204 104.411 191.176 104.428 191.156C104.48 191.076 104.536 191.008 104.584 190.936C105.508 189.68 106.442 188.428 107.387 187.18C107.39 187.172 107.39 187.172 107.401 187.167C114.625 177.678 122.705 168.709 131.889 161.252C132.165 161.028 132.445 160.795 132.737 160.577C136.895 157.239 141.319 154.246 145.965 151.628C148.514 150.203 151.133 148.908 153.812 147.747C160.742 144.763 168.097 142.887 175.61 142.188C190.585 140.797 205.839 144.212 217.325 153.621C217.619 153.862 217.905 154.099 218.196 154.348Z" fill="#F0F0F0"/>
<path d="M217.938 154.751C199.672 151.097 180.12 153.255 163.196 161.107C159.537 162.804 155.973 164.845 153.007 167.607C150.039 170.371 148.145 173.703 146.95 177.552C145.858 181.071 145.149 184.798 143.221 187.99C141.188 191.355 137.838 193.408 134.023 194.166C129.356 195.093 124.633 194.288 120.042 193.339C114.945 192.287 109.668 191.112 104.504 192.427C103.878 192.586 103.668 191.606 104.293 191.447C113.277 189.159 122.017 194.047 131.02 193.536C135.221 193.297 139.375 191.791 141.866 188.234C144.045 185.124 144.779 181.282 145.854 177.709C146.983 173.958 148.667 170.6 151.414 167.764C154.225 164.864 157.716 162.68 161.316 160.896C169.433 156.874 178.346 154.282 187.298 152.982C197.586 151.487 208.055 151.763 218.25 153.798C218.881 153.924 218.565 154.876 217.938 154.751V154.751Z" fill="white"/>
<path d="M168.562 158.264C167.641 155.213 167.833 151.932 169.107 149.01C170.38 146.087 172.65 143.712 175.513 142.309C176.093 142.028 176.558 142.916 175.977 143.198C173.309 144.5 171.195 146.712 170.015 149.436C168.835 152.16 168.667 155.216 169.542 158.053C169.732 158.669 168.751 158.877 168.562 158.264Z" fill="white"/>
<path d="M147.269 175.695C152.984 178.825 159.669 179.685 165.991 178.105C166.617 177.948 166.828 178.928 166.202 179.085C159.621 180.717 152.666 179.808 146.725 176.537C146.159 176.225 146.706 175.384 147.269 175.695Z" fill="white"/>
<path d="M197.239 152.77C197.35 154.025 197.77 155.233 198.463 156.285C199.156 157.338 200.099 158.202 201.208 158.799C201.778 159.104 201.231 159.945 200.665 159.642C199.442 158.976 198.402 158.02 197.634 156.859C196.866 155.698 196.394 154.367 196.259 152.981C196.235 152.852 196.262 152.718 196.333 152.607C196.405 152.497 196.515 152.417 196.643 152.386C196.773 152.358 196.909 152.383 197.02 152.455C197.132 152.527 197.21 152.64 197.239 152.77Z" fill="white"/>
<path d="M152.946 177.79C148.149 154.594 142.152 146.86 142.152 146.86L139.862 145.083L137.107 142.943L137.12 142.668L136.467 142.446L136.313 142.326L136.062 142.133L136.021 142.177L135.936 142.265L123.47 138.028L107.655 132.655L100.332 123.135C99.1388 121.585 97.6033 120.332 95.8452 119.474C94.0872 118.616 92.1545 118.178 90.1985 118.192L66.81 118.365C63.6476 118.389 60.6084 119.594 58.2898 121.745L42.9169 136.006L18.9629 147.447L18.9225 147.407L18.671 147.587L14.9699 149.357L15.1226 150.152L12.8318 151.805C12.8318 151.805 6.83552 159.001 2.03844 180.585C0.818113 186.077 0.217425 197.859 0.000609299 212.376C-0.0102814 213.111 0.124921 213.84 0.398352 214.522C0.671782 215.203 1.07799 215.824 1.59335 216.347C2.10871 216.87 2.72294 217.286 3.40034 217.57C4.07773 217.854 4.80477 218 5.53918 218H133.482V218H149.451C150.185 218 150.911 217.853 151.588 217.57C152.265 217.287 152.879 216.872 153.394 216.349C153.91 215.826 154.316 215.207 154.59 214.526C154.863 213.845 154.999 213.116 154.989 212.382C154.778 196.585 154.177 183.746 152.946 177.79Z" fill="#3F3D56"/>
<path d="M169.361 20.2296C164.384 20.2296 159.61 22.2071 156.09 25.7273C152.57 29.2474 150.593 34.0217 150.593 38.9999C150.593 43.9781 152.57 48.7524 156.09 52.2725C159.61 55.7927 164.384 57.7702 169.361 57.7702H309.231C314.209 57.7702 318.983 55.7927 322.503 52.2725C326.023 48.7524 328 43.9781 328 38.9999C328 34.0217 326.023 29.2474 322.503 25.7273C318.983 22.2071 314.209 20.2296 309.231 20.2296H169.361Z" fill="#E5E5E5"/>
<path d="M169.361 24.0283C165.391 24.0283 161.583 25.6057 158.776 28.4134C155.968 31.2211 154.391 35.0292 154.391 38.9999C154.391 42.9706 155.968 46.7787 158.776 49.5864C161.583 52.3941 165.391 53.9715 169.361 53.9715H309.232C313.202 53.9715 317.01 52.3941 319.817 49.5864C322.624 46.7787 324.202 42.9706 324.202 38.9999C324.202 35.0292 322.624 31.2211 319.817 28.4134C317.01 25.6057 313.202 24.0283 309.232 24.0283H169.361Z" fill="white"/>
<path d="M82.1772 109.405C99.0999 109.405 112.818 95.6849 112.818 78.7606C112.818 61.8363 99.0999 48.1164 82.1772 48.1164C65.2545 48.1164 51.536 61.8363 51.536 78.7606C51.536 95.6849 65.2545 109.405 82.1772 109.405Z" fill="#9E616A"/>
<path d="M74.3386 107.904C74.2077 107.616 74.0772 107.327 73.947 107.037C73.9972 107.038 74.0469 107.045 74.097 107.047L74.3386 107.904Z" fill="#2F2E41"/>
<path d="M50.684 49.5099C52.2337 48.2736 54.045 47.1359 56.0264 47.1999C58.0078 47.2637 60.0171 49.0535 59.6066 50.9931C63.246 44.5486 69.0388 39.592 75.9683 36.9934C82.8978 34.3948 90.5211 34.3202 97.5001 36.7827C102.425 38.5203 107.254 41.9965 108.385 47.0951C108.676 48.4039 108.738 49.839 109.555 50.9018C110.585 52.2418 112.557 52.5449 114.18 52.0735C114.196 52.0688 114.212 52.0641 114.228 52.0592C114.502 51.9656 114.798 51.9564 115.078 52.0328C115.357 52.1092 115.608 52.2677 115.796 52.4879C115.984 52.708 116.102 52.9796 116.135 53.2676C116.167 53.5556 116.112 53.8466 115.978 54.1031L114.584 56.7021C116.341 57.0936 118.166 57.0548 119.904 56.5889C120.193 56.5132 120.498 56.5286 120.777 56.6332C121.057 56.7377 121.298 56.9262 121.466 57.1728C121.634 57.4194 121.722 57.7121 121.717 58.0106C121.713 58.3091 121.616 58.5989 121.44 58.8402C116.845 65.1489 109.169 69.2227 101.336 69.1748C95.7689 69.1409 90.1442 67.2219 84.7259 68.5023C82.6297 68.9977 80.6711 69.956 78.9936 71.3072C77.3162 72.6583 75.9624 74.3679 75.0318 76.3105C74.1011 78.2531 73.6172 80.3794 73.6154 82.5334C73.6136 84.6875 74.094 86.8146 75.0215 88.7588C73.3569 86.938 70.1392 87.369 68.4365 89.1543C66.7339 90.9396 66.2931 93.6042 66.4647 96.0654C66.727 99.8296 68.2017 103.377 69.7564 106.829C56.722 106.418 44.3936 97.2741 40.2438 84.9062C36.0766 72.4864 40.444 57.6795 50.684 49.5099Z" fill="#2F2E41"/>
<path opacity="0.2" d="M30.1589 170.787L38.7531 217.551L43.9098 218L30.1589 170.787Z" fill="black"/>
<path opacity="0.2" d="M124.825 167.26L116.231 217.517L111.074 218L124.825 167.26Z" fill="black"/>
<path d="M200.257 47.9521H172.428C172.34 47.9527 172.252 47.9358 172.17 47.9024C172.088 47.8689 172.014 47.8197 171.951 47.7574C171.888 47.695 171.838 47.6209 171.805 47.5393C171.771 47.4577 171.753 47.3701 171.753 47.2817C171.753 47.1933 171.771 47.1057 171.805 47.0241C171.838 46.9425 171.888 46.8684 171.951 46.8061C172.014 46.7438 172.088 46.6945 172.17 46.6611C172.252 46.6276 172.34 46.6107 172.428 46.6113H200.257C200.434 46.6125 200.603 46.6837 200.728 46.8093C200.853 46.9349 200.923 47.1047 200.923 47.2817C200.923 47.4587 200.853 47.6285 200.728 47.7541C200.603 47.8797 200.434 47.9509 200.257 47.9521Z" fill="#00B0FF"/>
<path d="M235.56 48.1755H207.731C207.642 48.1761 207.554 48.1592 207.473 48.1258C207.391 48.0924 207.316 48.0431 207.254 47.9808C207.191 47.9185 207.141 47.8444 207.107 47.7627C207.073 47.6811 207.056 47.5936 207.056 47.5052C207.056 47.4167 207.073 47.3292 207.107 47.2475C207.141 47.1659 207.191 47.0918 207.254 47.0295C207.316 46.9672 207.391 46.9179 207.473 46.8845C207.554 46.8511 207.642 46.8342 207.731 46.8348H235.56C235.648 46.8342 235.736 46.8511 235.817 46.8845C235.899 46.9179 235.974 46.9672 236.036 47.0295C236.099 47.0918 236.149 47.1659 236.183 47.2475C236.217 47.3292 236.234 47.4167 236.234 47.5052C236.234 47.5936 236.217 47.6811 236.183 47.7627C236.149 47.8444 236.099 47.9185 236.036 47.9808C235.974 48.0431 235.899 48.0924 235.817 48.1258C235.736 48.1592 235.648 48.1761 235.56 48.1755Z" fill="#00B0FF"/>
<path d="M270.862 48.399H243.033C242.856 48.3978 242.687 48.3266 242.562 48.201C242.437 48.0754 242.367 47.9056 242.367 47.7286C242.367 47.5516 242.437 47.3818 242.562 47.2562C242.687 47.1306 242.856 47.0594 243.033 47.0582H270.862C270.951 47.0576 271.038 47.0745 271.12 47.108C271.202 47.1414 271.276 47.1907 271.339 47.253C271.402 47.3153 271.452 47.3894 271.486 47.471C271.52 47.5526 271.537 47.6402 271.537 47.7286C271.537 47.817 271.52 47.9046 271.486 47.9862C271.452 48.0678 271.402 48.1419 271.339 48.2043C271.276 48.2666 271.202 48.3158 271.12 48.3493C271.038 48.3827 270.951 48.3996 270.862 48.399H270.862Z" fill="#00B0FF"/>
<path d="M306.165 48.6224H278.336C278.159 48.6212 277.99 48.5501 277.865 48.4245C277.74 48.2989 277.67 48.1291 277.67 47.9521C277.67 47.775 277.74 47.6052 277.865 47.4796C277.99 47.354 278.159 47.2829 278.336 47.2817H306.165C306.342 47.2829 306.511 47.354 306.636 47.4796C306.761 47.6052 306.831 47.775 306.831 47.9521C306.831 48.1291 306.761 48.2989 306.636 48.4245C306.511 48.5501 306.342 48.6212 306.165 48.6224Z" fill="#00B0FF"/>
<path d="M186.281 41.7826C189.138 41.7826 191.453 39.4667 191.453 36.6099C191.453 33.753 189.138 31.4371 186.281 31.4371C183.425 31.4371 181.109 33.753 181.109 36.6099C181.109 39.4667 183.425 41.7826 186.281 41.7826Z" fill="#2495F3"/>
<path d="M221.797 41.7826C224.654 41.7826 226.969 39.4667 226.969 36.6099C226.969 33.753 224.654 31.4371 221.797 31.4371C218.941 31.4371 216.625 33.753 216.625 36.6099C216.625 39.4667 218.941 41.7826 221.797 41.7826Z" fill="#2495F3"/>
<path d="M257.313 41.7826C260.17 41.7826 262.485 39.4667 262.485 36.6099C262.485 33.753 260.17 31.4371 257.313 31.4371C254.456 31.4371 252.141 33.753 252.141 36.6099C252.141 39.4667 254.456 41.7826 257.313 41.7826Z" fill="#2495F3"/>
<path d="M261.5 283C287.734 283 309 261.734 309 235.5C309 209.266 287.734 188 261.5 188C235.266 188 214 209.266 214 235.5C214 261.734 235.266 283 261.5 283Z" fill="#2495F3"/>
<path d="M274.53 232.008V223.022C274.531 221.312 274.195 219.619 273.541 218.039C272.886 216.46 271.927 215.024 270.717 213.815C269.507 212.605 268.07 211.646 266.489 210.991C264.907 210.337 263.212 210 261.5 210C259.788 210 258.093 210.337 256.511 210.991C254.93 211.646 253.493 212.605 252.283 213.815C251.073 215.024 250.114 216.46 249.459 218.039C248.805 219.619 248.469 221.312 248.47 223.022V232.008C246.728 232.087 245.084 232.833 243.879 234.091C242.674 235.349 242.001 237.023 242 238.764V260H281V238.764C280.999 237.023 280.326 235.349 279.121 234.091C277.916 232.833 276.272 232.087 274.53 232.008ZM261.5 214.591C263.738 214.594 265.884 215.483 267.466 217.063C269.049 218.644 269.939 220.787 269.942 223.022V231.993H253.058V223.022C253.061 220.787 253.951 218.644 255.534 217.063C257.116 215.483 259.262 214.594 261.5 214.591Z" fill="white"/>
</svg>
