<svg width="319" height="426" viewBox="0 0 319 426" fill="none" xmlns="http://www.w3.org/2000/svg">
<g clip-path="url(#clip0_136_170)">
<path d="M106.954 317.091V344H103.8L89.1368 322.872H88.874V344H85.6155V317.091H88.7689L103.485 338.271H103.748V317.091H106.954ZM125.772 335.749V323.818H128.873V344H125.772V340.584H125.562C125.089 341.609 124.353 342.48 123.355 343.199C122.356 343.908 121.095 344.263 119.57 344.263C118.309 344.263 117.188 343.987 116.207 343.435C115.226 342.874 114.455 342.033 113.894 340.912C113.334 339.782 113.053 338.359 113.053 336.642V323.818H116.154V336.432C116.154 337.903 116.566 339.077 117.389 339.953C118.221 340.829 119.281 341.267 120.569 341.267C121.34 341.267 122.124 341.07 122.921 340.676C123.727 340.282 124.401 339.677 124.944 338.863C125.496 338.048 125.772 337.01 125.772 335.749ZM134.552 344V323.818H137.548V326.866H137.758C138.126 325.868 138.792 325.058 139.756 324.436C140.719 323.814 141.805 323.503 143.014 323.503C143.242 323.503 143.527 323.507 143.868 323.516C144.21 323.525 144.468 323.538 144.643 323.555V326.709C144.538 326.683 144.297 326.643 143.921 326.591C143.553 326.529 143.163 326.499 142.751 326.499C141.77 326.499 140.894 326.704 140.123 327.116C139.361 327.519 138.757 328.08 138.31 328.798C137.872 329.507 137.653 330.318 137.653 331.229V344H134.552ZM162.614 328.338L159.829 329.126C159.654 328.662 159.395 328.211 159.054 327.773C158.721 327.326 158.265 326.958 157.687 326.669C157.109 326.38 156.369 326.236 155.467 326.236C154.232 326.236 153.202 326.52 152.379 327.09C151.564 327.65 151.157 328.364 151.157 329.232C151.157 330.002 151.437 330.611 151.998 331.058C152.559 331.505 153.435 331.877 154.626 332.175L157.622 332.911C159.426 333.348 160.771 334.019 161.655 334.921C162.54 335.814 162.982 336.966 162.982 338.376C162.982 339.533 162.65 340.566 161.984 341.477C161.327 342.388 160.407 343.107 159.225 343.632C158.042 344.158 156.667 344.42 155.099 344.42C153.04 344.42 151.337 343.974 149.988 343.08C148.639 342.187 147.785 340.882 147.426 339.165L150.369 338.429C150.649 339.515 151.179 340.33 151.959 340.873C152.747 341.416 153.776 341.688 155.046 341.688C156.492 341.688 157.639 341.381 158.489 340.768C159.347 340.146 159.776 339.401 159.776 338.534C159.776 337.833 159.531 337.246 159.041 336.773C158.55 336.292 157.797 335.933 156.781 335.696L153.417 334.908C151.569 334.47 150.211 333.791 149.344 332.871C148.485 331.943 148.056 330.782 148.056 329.389C148.056 328.25 148.376 327.243 149.015 326.367C149.664 325.491 150.544 324.804 151.656 324.304C152.778 323.805 154.048 323.555 155.467 323.555C157.464 323.555 159.032 323.993 160.171 324.869C161.318 325.745 162.133 326.902 162.614 328.338ZM170.751 331.859V344H167.65V317.091H170.751V326.972H171.014C171.487 325.929 172.196 325.101 173.142 324.488C174.097 323.866 175.367 323.555 176.953 323.555C178.328 323.555 179.532 323.831 180.566 324.383C181.6 324.926 182.401 325.763 182.97 326.893C183.549 328.014 183.838 329.442 183.838 331.176V344H180.737V331.386C180.737 329.783 180.321 328.544 179.489 327.668C178.665 326.783 177.522 326.341 176.059 326.341C175.043 326.341 174.132 326.556 173.326 326.985C172.529 327.414 171.898 328.04 171.434 328.864C170.979 329.687 170.751 330.686 170.751 331.859ZM189.51 344V323.818H192.611V344H189.51ZM191.087 320.455C190.483 320.455 189.962 320.249 189.524 319.837C189.094 319.425 188.88 318.93 188.88 318.352C188.88 317.774 189.094 317.279 189.524 316.868C189.962 316.456 190.483 316.25 191.087 316.25C191.692 316.25 192.208 316.456 192.638 316.868C193.076 317.279 193.295 317.774 193.295 318.352C193.295 318.93 193.076 319.425 192.638 319.837C192.208 320.249 191.692 320.455 191.087 320.455ZM201.392 331.859V344H198.291V323.818H201.286V326.972H201.549C202.022 325.947 202.741 325.123 203.704 324.501C204.668 323.871 205.911 323.555 207.436 323.555C208.802 323.555 209.998 323.836 211.023 324.396C212.047 324.948 212.845 325.789 213.414 326.919C213.983 328.04 214.268 329.459 214.268 331.176V344H211.167V331.386C211.167 329.801 210.755 328.566 209.932 327.681C209.109 326.788 207.979 326.341 206.542 326.341C205.552 326.341 204.668 326.556 203.888 326.985C203.117 327.414 202.508 328.04 202.062 328.864C201.615 329.687 201.392 330.686 201.392 331.859ZM228.081 351.989C226.583 351.989 225.295 351.796 224.218 351.411C223.14 351.034 222.242 350.535 221.524 349.913C220.815 349.299 220.25 348.643 219.829 347.942L222.299 346.207C222.58 346.575 222.934 346.996 223.364 347.469C223.793 347.951 224.38 348.367 225.124 348.717C225.878 349.076 226.863 349.256 228.081 349.256C229.71 349.256 231.054 348.862 232.114 348.073C233.174 347.285 233.704 346.05 233.704 344.368V340.268H233.441C233.214 340.636 232.89 341.092 232.469 341.635C232.057 342.169 231.462 342.647 230.682 343.067C229.911 343.479 228.869 343.685 227.555 343.685C225.926 343.685 224.463 343.299 223.167 342.528C221.879 341.758 220.858 340.636 220.105 339.165C219.361 337.693 218.988 335.906 218.988 333.804C218.988 331.737 219.352 329.937 220.079 328.404C220.806 326.862 221.818 325.671 223.114 324.83C224.41 323.98 225.908 323.555 227.608 323.555C228.921 323.555 229.964 323.774 230.735 324.212C231.514 324.642 232.11 325.132 232.522 325.684C232.942 326.227 233.266 326.674 233.494 327.024H233.809V323.818H236.805V344.578C236.805 346.312 236.411 347.723 235.622 348.809C234.843 349.904 233.792 350.705 232.469 351.213C231.155 351.73 229.692 351.989 228.081 351.989ZM227.975 340.899C229.219 340.899 230.27 340.614 231.129 340.045C231.987 339.476 232.64 338.657 233.087 337.588C233.533 336.519 233.757 335.241 233.757 333.751C233.757 332.297 233.538 331.014 233.1 329.902C232.662 328.789 232.014 327.918 231.155 327.287C230.297 326.656 229.237 326.341 227.975 326.341C226.662 326.341 225.567 326.674 224.691 327.339C223.823 328.005 223.171 328.899 222.733 330.02C222.304 331.141 222.089 332.385 222.089 333.751C222.089 335.153 222.308 336.392 222.746 337.47C223.193 338.538 223.85 339.379 224.717 339.993C225.593 340.597 226.679 340.899 227.975 340.899ZM99.9511 425L86.6273 376.273H92.623L102.806 415.959H103.282L113.656 376.273H120.318L130.691 415.959H131.167L141.35 376.273H147.346L134.022 425H127.931L117.177 386.17H116.796L106.042 425H99.9511ZM161.288 425.857C158.973 425.857 156.871 425.42 154.983 424.548C153.096 423.66 151.597 422.383 150.487 420.717C149.376 419.036 148.821 417.006 148.821 414.626C148.821 412.533 149.234 410.835 150.058 409.535C150.883 408.218 151.986 407.187 153.366 406.442C154.746 405.696 156.268 405.141 157.934 404.776C159.615 404.396 161.304 404.094 163.002 403.872C165.222 403.587 167.023 403.373 168.402 403.23C169.798 403.071 170.813 402.809 171.448 402.445C172.098 402.08 172.423 401.445 172.423 400.541V400.351C172.423 398.003 171.781 396.179 170.496 394.879C169.227 393.578 167.3 392.928 164.715 392.928C162.034 392.928 159.932 393.514 158.41 394.688C156.887 395.862 155.816 397.115 155.198 398.447L149.868 396.544C150.82 394.323 152.089 392.594 153.675 391.357C155.277 390.104 157.022 389.232 158.909 388.74C160.813 388.232 162.684 387.979 164.524 387.979C165.698 387.979 167.046 388.121 168.569 388.407C170.108 388.677 171.591 389.24 173.018 390.096C174.462 390.953 175.659 392.246 176.611 393.974C177.563 395.703 178.038 398.019 178.038 400.922V425H172.423V420.051H172.138C171.757 420.844 171.123 421.693 170.235 422.597C169.346 423.501 168.165 424.27 166.689 424.905C165.214 425.539 163.414 425.857 161.288 425.857ZM162.145 420.812C164.366 420.812 166.237 420.376 167.76 419.504C169.299 418.632 170.457 417.505 171.234 416.125C172.027 414.745 172.423 413.294 172.423 411.771V406.632C172.186 406.918 171.662 407.179 170.853 407.417C170.06 407.639 169.14 407.838 168.093 408.012C167.062 408.171 166.055 408.313 165.072 408.44C164.104 408.551 163.319 408.647 162.716 408.726C161.257 408.916 159.893 409.225 158.624 409.654C157.371 410.066 156.355 410.693 155.578 411.533C154.817 412.358 154.436 413.484 154.436 414.912C154.436 416.863 155.158 418.338 156.601 419.337C158.061 420.321 159.909 420.812 162.145 420.812ZM193.902 376.273V425H188.287V376.273H193.902ZM214.941 425.857C212.625 425.857 210.523 425.42 208.636 424.548C206.748 423.66 205.249 422.383 204.139 420.717C203.029 419.036 202.473 417.006 202.473 414.626C202.473 412.533 202.886 410.835 203.711 409.535C204.536 408.218 205.638 407.187 207.018 406.442C208.398 405.696 209.921 405.141 211.586 404.776C213.267 404.396 214.957 404.094 216.654 403.872C218.875 403.587 220.675 403.373 222.055 403.23C223.451 403.071 224.466 402.809 225.1 402.445C225.751 402.08 226.076 401.445 226.076 400.541V400.351C226.076 398.003 225.433 396.179 224.149 394.879C222.88 393.578 220.952 392.928 218.367 392.928C215.686 392.928 213.585 393.514 212.062 394.688C210.539 395.862 209.469 397.115 208.85 398.447L203.52 396.544C204.472 394.323 205.741 392.594 207.327 391.357C208.929 390.104 210.674 389.232 212.562 388.74C214.465 388.232 216.337 387.979 218.177 387.979C219.35 387.979 220.699 388.121 222.221 388.407C223.76 388.677 225.243 389.24 226.671 390.096C228.114 390.953 229.312 392.246 230.263 393.974C231.215 395.703 231.691 398.019 231.691 400.922V425H226.076V420.051H225.79C225.41 420.844 224.775 421.693 223.887 422.597C222.999 423.501 221.817 424.27 220.342 424.905C218.867 425.539 217.066 425.857 214.941 425.857ZM215.797 420.812C218.018 420.812 219.89 420.376 221.412 419.504C222.951 418.632 224.109 417.505 224.886 416.125C225.679 414.745 226.076 413.294 226.076 411.771V406.632C225.838 406.918 225.314 407.179 224.505 407.417C223.712 407.639 222.792 407.838 221.746 408.012C220.715 408.171 219.707 408.313 218.724 408.44C217.756 408.551 216.971 408.647 216.368 408.726C214.909 408.916 213.545 409.225 212.276 409.654C211.023 410.066 210.008 410.693 209.231 411.533C208.469 412.358 208.089 413.484 208.089 414.912C208.089 416.863 208.81 418.338 210.254 419.337C211.713 420.321 213.561 420.812 215.797 420.812Z" fill="black"/>
<path opacity="0.1" d="M106.054 226.872C121.589 226.872 134.183 224.84 134.183 222.334C134.183 219.827 121.589 217.795 106.054 217.795C90.5192 217.795 77.9255 219.827 77.9255 222.334C77.9255 224.84 90.5192 226.872 106.054 226.872Z" fill="#00B0FF"/>
<path opacity="0.1" d="M258.958 227C278.343 227 294.058 224.968 294.058 222.461C294.058 219.955 278.343 217.923 258.958 217.923C239.573 217.923 223.858 219.955 223.858 222.461C223.858 224.968 239.573 227 258.958 227Z" fill="#00B0FF"/>
<path opacity="0.1" d="M3.99547 98.0803H33.2933V138.197H6.14034C6.06817 138.609 5.99889 139.024 5.92383 139.438H33.2933V171.791C33.2442 171.777 33.2009 171.759 33.1547 171.742C32.3811 171.435 31.6132 171.11 30.8453 170.762L30.3546 170.539C29.5848 170.173 28.815 169.786 28.0452 169.379C27.7767 169.236 27.5082 169.089 27.2426 168.938C22.969 166.533 19.0866 163.485 15.7302 159.901C15.632 159.805 15.5397 159.704 15.4415 159.611C14.9738 159.101 14.5148 158.584 14.0703 158.057L13.5795 157.477C13.0541 156.83 12.5461 156.166 12.0524 155.493C11.9803 155.394 11.911 155.296 11.8359 155.203C9.82833 152.407 8.16137 149.379 6.87069 146.184C6.83028 146.088 6.79564 145.984 6.75811 145.894C6.36166 144.869 6.01043 143.835 5.70444 142.791C5.57164 142.353 5.44463 141.921 5.33493 141.465C5.29451 141.332 5.25987 141.201 5.22812 141.071C3.58843 134.641 3.39502 127.963 3.39502 121.33C3.39502 120.556 3.39502 119.779 3.39502 119.01C3.39502 116.328 3.42677 113.628 3.47296 110.931C3.47296 110.232 3.50183 109.536 3.51626 108.834C3.55668 107.053 3.61441 105.272 3.68947 103.492C3.70679 102.996 3.72988 102.503 3.75586 102.01C3.75586 101.726 3.7703 101.442 3.79917 101.157C3.86845 100.125 3.92618 99.1011 3.99547 98.0803Z" fill="#00B0FF"/>
<path opacity="0.1" d="M33.2934 53.4135H17.2227C19.8351 49.3057 22.6894 45.3585 25.7705 41.5928C28.1578 38.6463 30.678 35.7752 33.2934 33.0086V53.4135Z" fill="#00B0FF"/>
<path opacity="0.1" d="M33.2933 54.6547V96.8391H4.08789C4.08789 96.7173 4.10809 96.5926 4.11675 96.4708C4.14273 96.1373 4.16872 95.8038 4.19758 95.4732C4.22934 95.0846 4.26398 94.693 4.30151 94.3131C4.33904 93.9332 4.37945 93.4692 4.42275 93.0487C4.46605 92.6282 4.50647 92.2019 4.55554 91.7814C4.60462 91.3609 4.64792 90.9404 4.69988 90.5227C4.75184 90.1051 4.79803 89.6817 4.85288 89.2641C4.89618 88.9161 4.94237 88.571 4.98856 88.223C5.05495 87.7329 5.12424 87.2399 5.19929 86.7527C5.19929 86.6802 5.2195 86.6048 5.23105 86.5352C5.75794 82.9685 6.47586 79.4331 7.38169 75.9441C8.32988 72.2842 9.54068 68.698 11.0046 65.2138C12.5604 61.569 14.3821 58.0445 16.4548 54.6692L33.2933 54.6547Z" fill="#00B0FF"/>
<path opacity="0.1" d="M40.2878 98.0774V138.197H102.864V98.0774H40.2878ZM40.2878 139.435V173.888C40.6458 173.964 41.0009 174.036 41.3531 174.097C41.8323 174.19 42.3086 174.274 42.7964 174.346C42.8888 174.361 42.9841 174.375 43.0851 174.384C43.2757 174.416 43.472 174.442 43.6625 174.468C44.1446 174.535 44.6238 174.59 45.1059 174.633C45.3339 174.657 45.5649 174.677 45.7958 174.694L46.353 174.738C46.6561 174.761 46.9563 174.778 47.2536 174.787C47.4384 174.787 47.6231 174.805 47.8137 174.81C47.958 174.81 48.1023 174.81 48.2524 174.81C48.4026 174.81 48.6162 174.81 48.798 174.81C49.0463 174.81 49.2946 174.81 49.54 174.81H49.8719C50.1202 174.81 50.3685 174.81 50.6138 174.787H50.6312C50.8015 174.787 50.9747 174.787 51.1479 174.764C51.196 174.767 51.2441 174.767 51.2922 174.764C51.4366 174.764 51.5809 174.764 51.7195 174.744H51.8205L52.7876 174.668C53.1051 174.639 53.4255 174.602 53.7489 174.567L54.4071 174.488C57.0848 174.112 59.7327 173.546 62.3312 172.795C68.1683 171.159 73.8783 168.871 79.7125 167.195C87.2556 165.034 95.5898 163.973 102.879 166.615V139.435H40.2878ZM102.864 53.4135V0.00288116C96.0134 -0.0716865 89.1809 0.733316 82.5329 2.39834C66.6874 6.39753 52.47 15.0716 40.2878 26.1499V53.4106H43.4286V54.6489H40.2878V96.8391H102.864V54.6518H56.3239V53.4135H102.864ZM183.241 35.3721C179.321 35.2329 175.423 33.9859 171.899 32.0602C165.158 28.3772 159.774 22.6901 153.758 17.8905C141.259 7.89397 125.757 1.86183 109.853 0.36539V53.4135H199.184L199.407 53.1785L183.241 35.3721ZM191.379 33.9221L200.007 43.4343V31.428C197.118 31.7876 194.586 32.6432 191.39 33.9105L191.379 33.9221ZM200.007 182.443V139.435H181.621C181.572 139.253 181.523 139.067 181.465 138.881C181.52 139.067 181.567 139.253 181.618 139.435H109.865V170.539C110.546 171.046 111.219 171.58 111.886 172.122C112.604 172.702 113.315 173.314 114.028 173.914L114.746 174.512C115.09 174.802 115.436 175.092 115.786 175.364C116.478 175.929 117.178 176.486 117.884 177.035C118.234 177.325 118.592 177.586 118.947 177.858C124.584 182.188 130.53 186.095 136.738 189.548C138.129 190.322 139.533 191.077 140.95 191.813C141.894 192.298 142.843 192.779 143.796 193.246C145.228 193.948 146.671 194.625 148.126 195.276C161.54 201.325 175.724 205.476 190.273 207.61C193.504 208.09 196.748 208.467 200.004 208.741V182.44H200.293L200.007 182.443ZM109.865 54.6518V96.8391H200.019V54.6518H109.865ZM109.865 98.0774V138.197H200.019V98.0774H109.865ZM207.016 31.3758V44.7683L218.029 32.6287C214.38 32.037 210.709 31.6146 207.016 31.3613V31.3758ZM207.016 98.0919V138.197H294.702V98.0774L207.016 98.0919ZM294.382 185.628L294.69 139.435H207.016V209.202C212.664 209.441 218.321 209.373 223.962 208.999H224.06C226.754 208.829 229.436 208.582 232.105 208.257H232.166C246.406 206.592 260.331 202.859 273.504 197.176L294.382 185.628ZM311.61 104.684C311.281 103.904 310.937 103.129 310.588 102.364C309.936 100.914 309.246 99.5042 308.535 98.0948H301.694V138.197H318.991C318.983 126.84 316.122 115.24 311.619 104.669L311.61 104.684ZM301.694 139.45V179.181C306.567 174.488 310.683 169.12 313.648 162.984C317.213 155.594 318.844 147.593 318.977 139.444L301.694 139.45ZM301.694 86.4017V96.842H307.895C306.019 93.248 303.952 89.758 301.702 86.3872L301.694 86.4017ZM242.226 39.2466C241.77 39.0726 241.314 38.8957 240.855 38.7246C236.014 36.9287 231.067 35.4352 226.043 34.2527L209.19 52.8334L208.867 53.1785L209.083 53.4164H269.065C260.711 47.6396 251.705 42.8782 242.235 39.2321L242.226 39.2466ZM270.823 54.6663H208.246L207.016 55.7973V96.8391H217.796H217.813H294.714V76.9591C287.757 68.5071 279.728 61.0075 270.831 54.6518L270.823 54.6663Z" fill="#00B0FF"/>
<path opacity="0.1" d="M33.2933 75.9325V96.8391H4.08789C4.08789 96.7173 4.10809 96.5926 4.11675 96.4708C4.14273 96.1373 4.16872 95.8038 4.19758 95.4732C4.22934 95.0846 4.26398 94.693 4.30151 94.3131C4.33904 93.9332 4.37945 93.4692 4.42275 93.0487C4.46605 92.6282 4.50647 92.2019 4.55554 91.7814C4.60462 91.3609 4.64792 90.9404 4.69988 90.5227C4.75184 90.1051 4.79803 89.6817 4.85288 89.2641C4.89618 88.9161 4.94237 88.571 4.98856 88.223C5.05495 87.7329 5.12424 87.2399 5.19929 86.7527C5.19929 86.6802 5.2195 86.6047 5.23105 86.5351C5.75794 82.9685 6.47586 79.4331 7.38169 75.9441L33.2933 75.9325Z" fill="#00B0FF"/>
<path opacity="0.1" d="M3.99547 98.0803H33.2933V138.197H6.14034C6.06817 138.609 5.99889 139.024 5.92383 139.438H33.2933V171.791C33.2442 171.777 33.2009 171.759 33.1547 171.742C32.3811 171.435 31.6132 171.11 30.8453 170.762L30.3546 170.539C29.5848 170.173 28.815 169.786 28.0452 169.379C27.7767 169.236 27.5082 169.089 27.2426 168.938C22.969 166.533 19.0866 163.485 15.7302 159.901C15.632 159.805 15.5397 159.704 15.4415 159.611C14.9738 159.101 14.5148 158.584 14.0703 158.057L13.5795 157.477C13.0541 156.83 12.5461 156.166 12.0524 155.493C11.9803 155.394 11.911 155.296 11.8359 155.203C9.82833 152.407 8.16137 149.379 6.87069 146.184C6.83028 146.088 6.79564 145.984 6.75811 145.894C6.36166 144.869 6.01043 143.835 5.70444 142.791C5.57164 142.353 5.44463 141.921 5.33493 141.465C5.29451 141.332 5.25987 141.201 5.22812 141.071C3.58843 134.641 3.39502 127.963 3.39502 121.33C3.39502 120.556 3.39502 119.779 3.39502 119.01C3.39502 116.328 3.42677 113.628 3.47296 110.931C3.47296 110.232 3.50183 109.536 3.51626 108.834C3.55668 107.053 3.61441 105.272 3.68947 103.492C3.70679 102.996 3.72988 102.503 3.75586 102.01C3.75586 101.726 3.7703 101.442 3.79917 101.157C3.86845 100.125 3.92618 99.1011 3.99547 98.0803Z" fill="#00B0FF"/>
<path opacity="0.1" d="M62.3168 60.6926V96.8391H40.2878V60.6926H43.4287V48.4543H56.321V60.6926H62.3168Z" fill="#00B0FF"/>
<path opacity="0.1" d="M62.3169 98.0774H40.2908V138.194H62.3169V98.0774Z" fill="#00B0FF"/>
<path opacity="0.1" d="M40.2878 139.438H62.3168V172.789C59.7183 173.539 57.0703 174.104 54.3926 174.48L53.7344 174.561C53.4111 174.599 53.0907 174.631 52.7731 174.662C52.4556 174.694 52.1265 174.718 51.8061 174.738H51.705C51.5665 174.738 51.4164 174.755 51.2807 174.758H51.1334C50.9602 174.758 50.787 174.776 50.6138 174.781C50.3685 174.796 50.1231 174.799 49.8719 174.802C49.7651 174.802 49.6641 174.802 49.5573 174.802C49.309 174.802 49.0636 174.802 48.8154 174.802H48.2698C48.1225 174.802 47.9811 174.802 47.8281 174.802L47.2709 174.781C46.9823 174.781 46.6705 174.749 46.3703 174.729L45.816 174.689L45.1261 174.625C44.6411 174.581 44.159 174.526 43.6827 174.459L43.1053 174.378L42.8167 174.338C42.3346 174.262 41.8582 174.181 41.3733 174.088C41.0182 174.027 40.666 173.952 40.308 173.879L40.2878 139.438Z" fill="#00B0FF"/>
<path opacity="0.1" d="M200.019 56.4237H181.855V96.8362H200.019V56.4237Z" fill="#00B0FF"/>
<path opacity="0.1" d="M200.022 98.0774V138.197H109.865V120.892H157.886V131.101H181.855V98.0774H200.022Z" fill="#00B0FF"/>
<path opacity="0.1" d="M200.307 182.452H200.019V208.77C196.766 208.494 193.524 208.118 190.29 207.642C175.734 205.501 161.544 201.341 148.126 195.282C144.252 193.53 140.457 191.618 136.741 189.546C130.533 186.091 124.586 182.184 118.947 177.855C117.53 176.765 116.132 175.649 114.752 174.509C113.797 173.717 112.847 172.905 111.886 172.116C111.219 171.574 110.546 171.04 109.865 170.53V139.438H181.616C181.567 139.253 181.517 139.067 181.465 138.884C181.52 139.067 181.572 139.253 181.621 139.438H200.019V182.435C200.117 182.438 200.212 182.446 200.307 182.452Z" fill="#00B0FF"/>
<path opacity="0.1" d="M247.391 53.4135H235.555V49.7188H240.861V38.713C241.321 38.8812 241.779 39.0543 242.235 39.2321V49.7188H247.391V53.4135Z" fill="#00B0FF"/>
<path opacity="0.1" d="M275.906 96.8391H217.801C217.801 96.8391 217.801 96.8391 217.821 96.8536L217.795 96.8391H207.016V56.4266H210.07V86.2974H224.028V68.6069H235.558V54.6547H247.394V68.6185H258.923V86.3089H275.906V96.8391Z" fill="#00B0FF"/>
<path opacity="0.1" d="M207.016 98.0774V138.197H275.906V98.0774H207.016ZM294.607 185.422L294.702 153.666H275.906V139.456H207.016V209.202C212.664 209.441 218.321 209.373 223.962 208.999H224.06C226.754 208.829 229.436 208.582 232.105 208.257H232.166C246.406 206.592 260.331 202.859 273.504 197.176" fill="#00B0FF"/>
<path opacity="0.1" d="M302.918 139.438H318.988C318.847 147.585 317.219 155.586 313.657 162.975C310.692 169.115 306.572 174.483 301.705 179.172V153.651H302.918V139.438Z" fill="#00B0FF"/>
<path opacity="0.1" d="M318.997 138.197H302.918V104.669H311.618C316.122 115.24 318.983 126.84 318.997 138.197Z" fill="#00B0FF"/>
<path opacity="0.1" d="M200.022 67.6586H190.29V80.329H200.022V67.6586Z" fill="#00B0FF"/>
<path opacity="0.1" d="M200.022 93.9216H190.29V96.8391H200.022V93.9216Z" fill="#00B0FF"/>
<path opacity="0.1" d="M200.022 98.0774H190.29V106.589H200.022V98.0774Z" fill="#00B0FF"/>
<path opacity="0.1" d="M200.022 120.185H190.29V132.855H200.022V120.185Z" fill="#00B0FF"/>
<path opacity="0.1" d="M200.022 146.448H190.29V159.118H200.022V146.448Z" fill="#00B0FF"/>
<path opacity="0.1" d="M200.019 182.435C200.117 182.435 200.212 182.435 200.307 182.452H200.019V185.396H190.29V172.711H200.019V182.435Z" fill="#00B0FF"/>
<path opacity="0.1" d="M200.019 198.968V208.756C196.766 208.479 193.523 208.103 190.29 207.628V198.968H200.019Z" fill="#00B0FF"/>
<path opacity="0.1" d="M151.57 137.266H109.865V138.197H151.57V137.266Z" fill="#00B0FF"/>
<path opacity="0.1" d="M151.57 139.435H109.865V143.002H151.57V139.435Z" fill="#00B0FF"/>
<path opacity="0.1" d="M151.57 154.695H109.865V160.432H151.57V154.695Z" fill="#00B0FF"/>
<path opacity="0.1" d="M151.567 172.125V177.861H118.947C117.53 176.775 116.131 175.659 114.749 174.515C113.794 173.723 112.847 172.911 111.883 172.125H151.567Z" fill="#00B0FF"/>
<path opacity="0.1" d="M151.567 189.551V195.282H148.123C144.253 193.528 140.459 191.615 136.741 189.543L151.567 189.551Z" fill="#00B0FF"/>
<path opacity="0.1" d="M232.175 101.966H223.965V110.214H232.175V101.966Z" fill="#00B0FF"/>
<path opacity="0.1" d="M54.4128 63.5376H46.2029V71.7854H54.4128V63.5376Z" fill="#00B0FF"/>
<path opacity="0.1" d="M54.4128 82.6955H46.2029V90.9433H54.4128V82.6955Z" fill="#00B0FF"/>
<path opacity="0.1" d="M54.4128 101.853H46.2029V110.101H54.4128V101.853Z" fill="#00B0FF"/>
<path opacity="0.1" d="M54.4128 121.008H46.2029V129.256H54.4128V121.008Z" fill="#00B0FF"/>
<path opacity="0.1" d="M54.4128 140.166H46.2029V148.414H54.4128V140.166Z" fill="#00B0FF"/>
<path opacity="0.1" d="M54.4128 159.324H46.2029V167.572H54.4128V159.324Z" fill="#00B0FF"/>
<path opacity="0.1" d="M263.516 101.966H255.306V110.214H263.516V101.966Z" fill="#00B0FF"/>
<path opacity="0.1" d="M232.175 122.31H223.965V130.558H232.175V122.31Z" fill="#00B0FF"/>
<path opacity="0.1" d="M263.516 122.31H255.306V130.558H263.516V122.31Z" fill="#00B0FF"/>
<path opacity="0.1" d="M232.175 142.652H223.965V150.899H232.175V142.652Z" fill="#00B0FF"/>
<path opacity="0.1" d="M263.516 142.652H255.306V150.899H263.516V142.652Z" fill="#00B0FF"/>
<path opacity="0.1" d="M232.175 162.995H223.965V171.243H232.175V162.995Z" fill="#00B0FF"/>
<path opacity="0.1" d="M263.516 162.995H255.306V171.243H263.516V162.995Z" fill="#00B0FF"/>
<path opacity="0.1" d="M232.175 183.339H223.965V191.587H232.175V183.339Z" fill="#00B0FF"/>
<path opacity="0.1" d="M263.516 183.339H255.306V191.587H263.516V183.339Z" fill="#00B0FF"/>
<path opacity="0.1" d="M223.965 208.999V203.681H232.172V208.242L223.965 208.999Z" fill="#00B0FF"/>
<path opacity="0.1" d="M5.19629 86.5294V91.2478H33.2932V86.5294H5.19629ZM7.99646 90.952H5.70436V86.8194H8.01378L7.99646 90.952ZM10.7937 90.952H8.48432V86.8194H10.7937V90.952ZM13.5852 90.952H11.2758V86.8194H13.5852V90.952ZM16.3825 90.952H14.076V86.8194H16.3854L16.3825 90.952ZM19.1769 90.952H16.8675V86.8194H19.1769V90.952ZM21.9742 90.952H19.6648V86.8194H21.9742V90.952ZM24.7715 90.952H22.4621V86.8194H24.7715V90.952ZM27.5659 90.952H25.2565V86.8194H27.5659V90.952ZM30.3603 90.952H28.0509V86.8194H30.3603V90.952ZM33.1547 90.952H30.8452V86.8194H33.1547V90.952Z" fill="#00B0FF"/>
<path opacity="0.1" d="M5.19629 100.258V104.977H33.2932V100.258H5.19629ZM7.99646 104.678H5.70436V100.557H8.01378L7.99646 104.678ZM10.7937 104.678H8.48432V100.557H10.7937V104.678ZM13.5852 104.678H11.2758V100.557H13.5852V104.678ZM16.3825 104.678H14.076V100.557H16.3854L16.3825 104.678ZM19.1769 104.678H16.8675V100.557H19.1769V104.678ZM21.9742 104.678H19.6648V100.557H21.9742V104.678ZM24.7715 104.678H22.4621V100.557H24.7715V104.678ZM27.5659 104.678H25.2565V100.557H27.5659V104.678ZM30.3603 104.678H28.0509V100.557H30.3603V104.678ZM33.1547 104.678H30.8452V100.557H33.1547V104.678Z" fill="#00B0FF"/>
<path opacity="0.1" d="M5.19629 113.993V118.72H33.2932V113.993H5.19629ZM7.99646 118.413H5.70436V114.289H8.01378L7.99646 118.413ZM10.7937 118.413H8.48432V114.289H10.7937V118.413ZM13.5852 118.413H11.2758V114.289H13.5852V118.413ZM16.3825 118.413H14.076V114.289H16.3854L16.3825 118.413ZM19.1769 118.413H16.8675V114.289H19.1769V118.413ZM21.9742 118.413H19.6648V114.289H21.9742V118.413ZM24.7715 118.413H22.4621V114.289H24.7715V118.413ZM27.5659 118.413H25.2565V114.289H27.5659V118.413ZM30.3603 118.413H28.0509V114.289H30.3603V118.413ZM33.1547 118.413H30.8452V114.289H33.1547V118.413Z" fill="#00B0FF"/>
<path opacity="0.1" d="M5.19629 127.728V132.44H33.2932V127.728H5.19629ZM7.99646 132.147H5.70436V128.021H8.01378L7.99646 132.147ZM10.7937 132.147H8.48432V128.021H10.7937V132.147ZM13.5852 132.147H11.2758V128.021H13.5852V132.147ZM16.3825 132.147H14.076V128.021H16.3854L16.3825 132.147ZM19.1769 132.147H16.8675V128.021H19.1769V132.147ZM21.9742 132.147H19.6648V128.021H21.9742V132.147ZM24.7715 132.147H22.4621V128.021H24.7715V132.147ZM27.5659 132.147H25.2565V128.021H27.5659V132.147ZM30.3603 132.147H28.0509V128.021H30.3603V132.147ZM33.1547 132.147H30.8452V128.021H33.1547V132.147Z" fill="#00B0FF"/>
<path opacity="0.1" d="M5.31738 141.46C5.42997 141.903 5.55698 142.347 5.68977 142.785V141.755H7.99919V145.879H6.76365C6.80118 145.975 6.83871 146.079 6.87624 146.169H33.2931V141.46H5.31738ZM10.8023 145.879H8.49283V141.755H10.8023V145.879ZM13.5938 145.879H11.2843V141.755H13.5938V145.879ZM16.391 145.879H14.0759V141.755H16.3853L16.391 145.879ZM19.1854 145.879H16.876V141.755H19.1854V145.879ZM21.9827 145.879H19.6733V141.755H21.9827V145.879ZM24.78 145.879H22.4706V141.755H24.78V145.879ZM27.5744 145.879H25.265V141.755H27.5744V145.879ZM30.3688 145.879H28.0594V141.755H30.3688V145.879ZM33.1632 145.879H30.8538V141.755H33.1632V145.879Z" fill="#00B0FF"/>
<path opacity="0.1" d="M11.8418 155.194C11.9139 155.287 11.9832 155.391 12.0583 155.484H13.5854V157.465C13.7499 157.662 13.9116 157.859 14.079 158.045V155.473H16.3884V159.611H15.4531C15.5455 159.707 15.635 159.808 15.7418 159.901H33.302V155.194H11.8418ZM19.177 159.611H16.8676V155.49H19.177V159.611ZM21.9743 159.611H19.6649V155.49H21.9743V159.611ZM24.7716 159.611H22.4622V155.49H24.7716V159.611ZM27.566 159.611H25.2566V155.49H27.566V159.611ZM30.3604 159.611H28.051V155.49H30.3604V159.611ZM33.1548 159.611H30.8454V155.49H33.1548V159.611Z" fill="#00B0FF"/>
<path opacity="0.1" d="M27.2542 168.926C27.5169 169.077 27.7854 169.216 28.0568 169.367V169.222H30.3661V170.527L30.8569 170.756V169.222H33.1663V171.73C33.2106 171.753 33.257 171.77 33.3048 171.783V168.926H27.2542Z" fill="#00B0FF"/>
<path opacity="0.1" d="M217.801 96.8391H217.819H217.801ZM200.019 182.432H200.307H200.019ZM181.465 138.881C181.52 139.067 181.567 139.253 181.618 139.435C181.572 139.253 181.523 139.067 181.465 138.881ZM217.801 96.8304H217.819H217.801ZM43.4404 53.4048V54.6431H56.3356V53.4048H43.4404ZM200.019 182.432H200.307H200.019ZM181.465 138.881C181.52 139.067 181.567 139.253 181.618 139.435C181.572 139.253 181.523 139.067 181.465 138.881ZM217.801 96.8304H217.819H217.801ZM200.019 182.423H200.307H200.019ZM181.465 138.881C181.52 139.067 181.567 139.253 181.618 139.435C181.572 139.253 181.523 139.067 181.465 138.881Z" fill="#00B0FF"/>
<path d="M133.253 110.107C133.253 110.107 132.116 109.947 132.116 108.283C132.116 106.618 131.302 103.509 131.302 103.509C131.302 103.495 130.598 98.0948 129.625 97.2364C128.652 96.378 127.402 91.3377 127.402 91.3377C127.402 91.3377 127.188 88.6029 126.752 88.0142C126.317 87.4255 125.728 85.9841 124.859 83.928C123.99 81.8718 120.367 80.4479 120.367 80.4479C120.367 80.4479 113.817 76.6314 111.961 75.3873C111.792 75.2851 111.634 75.1655 111.49 75.0306C111.167 74.6043 109.758 74.5956 109.758 74.5956C109.611 73.6618 109.469 72.5887 109.423 71.6172C109.423 71.5128 109.423 71.4084 109.409 71.304C111.478 70.0749 113.037 68.137 113.799 65.8461C113.834 65.7359 113.863 65.6199 113.895 65.5097C114.019 65.4686 114.133 65.402 114.23 65.3141C114.327 65.2262 114.404 65.119 114.458 64.9993C114.625 64.6251 114.628 64.1872 114.836 63.8392C115.078 63.4274 115.54 63.207 115.904 62.8967C116.822 62.1137 117.059 60.7941 117.015 59.5935C116.986 58.622 116.831 57.6418 116.891 56.676L116.909 56.4324C116.926 56.2874 116.946 56.1424 116.972 56.0032C117.113 55.284 117.422 54.6054 117.596 53.892C117.769 53.1786 117.786 52.3752 117.382 51.7604C116.79 50.8585 115.558 50.6787 114.475 50.5859C113.248 50.4815 112.151 50.6178 111.366 49.5941C110.998 49.059 110.585 48.5573 110.13 48.0947C109.969 47.9439 108.398 46.9811 108.398 46.9173C106.866 46.2042 105.128 46.0703 103.505 46.5403C102.691 46.7781 101.923 47.1667 101.098 47.361C99.3167 47.7844 97.2671 47.3262 95.7545 48.35C94.9115 48.93 94.4063 49.8522 93.9329 50.7512C93.548 51.4917 93.1573 52.2312 92.7609 52.9698C92.1229 54.1849 91.4734 55.4203 91.2049 56.766C91.1484 57.0588 91.1137 57.3554 91.101 57.6534V57.6679C91.101 57.7752 91.101 57.8825 91.101 57.9898V58.1261C91.101 58.2276 91.101 58.3262 91.1183 58.4161C91.1356 58.506 91.1327 58.535 91.1414 58.5959C91.15 58.6568 91.1645 58.7931 91.1818 58.8859C91.1991 58.9787 91.2338 59.1411 91.2684 59.2687C91.2828 59.3238 91.303 59.376 91.3204 59.4282C91.3492 59.5268 91.3839 59.6225 91.4214 59.7182C91.4416 59.7675 91.4618 59.8197 91.4849 59.869C91.5282 59.9705 91.5802 60.0691 91.6321 60.159C91.6552 60.1996 91.6726 60.2373 91.6957 60.275C91.7762 60.4099 91.8649 60.5397 91.9612 60.6636C92.579 61.438 93.4883 61.931 94.161 62.656C94.161 62.685 94.161 62.714 94.161 62.7401C94.161 62.8213 94.161 62.8996 94.161 62.9808C94.1966 64.5977 94.625 66.1814 95.4089 67.5941C96.1927 69.0068 97.3083 70.2057 98.6585 71.0865C98.6585 71.1967 98.673 71.3098 98.6788 71.42C98.735 72.2808 98.7244 73.1448 98.647 74.004C98.5294 73.8649 98.3823 73.7541 98.2164 73.6798C98.0505 73.6055 97.8701 73.5696 97.6886 73.5747C97.5646 73.5687 97.4403 73.5794 97.3191 73.6067L97.2931 73.5864V73.6125C96.658 73.7691 95.8757 74.4332 95.128 76.3211C95.128 76.3211 92.8533 78.8964 91.1212 78.7891C89.3891 78.6818 85.0041 81.4687 85.0041 81.4687C85.0041 81.4687 80.7259 84.2586 79.8079 87.1007C79.2948 88.7123 78.6796 90.2893 77.9662 91.822L72.6776 102.77L71.7019 111.455C71.7019 111.455 72.2417 115.318 72.1349 115.907C72.0281 116.496 74.3548 121.806 74.3548 121.806C74.3548 121.806 82.0423 135.375 85.1831 136.071L85.4083 135.912C85.5426 135.982 85.6852 136.036 85.8326 136.071L86.4793 135.613C86.5181 136.124 86.5016 136.637 86.4302 137.144C85.9972 138.484 86.5918 147.228 87.3482 148.942C88.1045 150.656 87.836 173.128 87.836 173.128L87.7292 175.112C87.7292 175.112 87.7292 175.176 87.7552 175.286L87.7292 175.756L87.8072 175.796C87.8881 176.426 87.8618 177.064 87.7292 177.684C87.4579 178.554 87.3482 181.014 87.3482 181.014C87.3482 181.014 85.186 194.899 86.2108 197.689C87.2356 200.479 88.1074 203.536 88.1074 203.536C88.1074 203.536 89.1899 207.016 88.1594 207.61C87.1288 208.205 84.1987 209.202 84.802 210.652C85.3505 211.992 87.4319 215.582 87.7408 216.107L87.7148 216.383L87.2904 221.003C87.3592 221.613 87.5238 222.208 87.7783 222.766C88.2431 223.772 89.1466 224.816 90.8643 224.703C91.1529 224.683 91.4878 224.648 91.8111 224.605C94.9548 224.181 98.826 222.772 98.826 222.772C98.625 222.643 98.4407 222.49 98.2775 222.316C98.123 222.166 98.0005 221.986 97.9177 221.786C97.8348 221.587 97.7932 221.372 97.7954 221.156C97.8416 220.315 96.2741 216.307 95.8844 215.321C95.8237 215.179 95.792 215.098 95.792 215.098C95.792 215.098 99.3658 211.345 98.7711 208.019C98.7711 208.019 94.8163 205.699 96.1182 204.426C97.4201 203.153 99.7469 199.496 99.7469 199.496C99.7469 199.496 99.8537 185.822 99.7469 183.78C99.6355 182.363 99.7024 180.938 99.946 179.537C99.9893 179.326 100.041 179.12 100.096 178.917C101.897 179.187 103.714 179.325 105.535 179.332C106.199 179.332 106.874 179.332 107.555 179.291C107.555 179.484 107.564 179.693 107.581 179.917C107.731 183.305 108.011 189.244 108.24 191.451C108.563 194.615 110.35 203.141 110.35 203.141C110.35 203.141 106.94 205.339 110.944 210.757C110.944 210.757 110.944 212.72 110.679 213.004C110.395 213.933 110.167 214.878 109.995 215.835C109.827 216.856 109.758 217.888 110.029 218.424C110.679 219.706 114.576 219.602 114.576 219.602L114.671 219.585C115.407 219.508 116.151 219.579 116.859 219.794C117.567 220.008 118.225 220.362 118.796 220.834C120.277 222.029 125.898 221.504 128.941 221.124C130.133 220.974 130.93 220.834 130.93 220.834C130.968 220.699 130.982 220.557 130.97 220.417C130.938 219.666 130.352 218.019 126.38 216.548C126.38 216.548 122.645 214.025 122.697 211.827H122.619H122.186C122.5 211.809 122.702 211.827 122.702 211.827C122.702 211.827 121.239 206.462 121.836 206.027C122.434 205.592 120.644 199.647 120.644 199.647C120.644 199.647 119.619 189.67 119.564 188.971C119.567 188.372 119.657 187.776 119.833 187.202L119.564 181.733C119.564 181.733 119.512 179.914 119.564 179.323C119.556 178.809 119.514 178.297 119.44 177.789C119.414 177.586 119.388 177.374 119.359 177.165C120.759 176.809 121.669 176.478 121.669 176.478L121.507 157.439C122.697 155.119 122.916 150.029 122.91 146.419C122.91 144.099 122.806 142.382 122.806 142.382L124.431 139.717C124.431 139.717 124.807 136.527 124.212 135.828C123.949 135.512 124.068 135.184 124.284 134.914C124.397 134.825 124.515 134.743 124.639 134.671C124.639 134.671 124.622 134.644 124.602 134.607C124.715 134.511 124.836 134.425 124.963 134.349C124.963 134.349 124.385 133.45 124.902 133.07C125.387 133.4 125.82 133.65 126.149 133.853C126.126 134.064 126.103 134.186 126.103 134.186L126.241 133.896C126.559 134.076 126.752 134.186 126.752 134.186C126.752 134.186 129.299 129.091 129.244 128.34C129.189 127.589 130.976 124.425 130.976 124.425C130.976 124.425 131.192 122.763 132.168 122.067C133.144 121.371 132.924 116.328 132.924 116.328C132.924 116.328 133.196 113.7 133.845 112.627C134.495 111.554 133.253 110.107 133.253 110.107ZM84.5365 107.871L84.5855 109.086C84.2969 108.619 84.089 108.283 84.089 108.283L84.5365 107.871Z" fill="url(#paint0_linear_136_170)"/>
<path d="M126.891 131.985L126.268 134.653C126.268 134.653 121.273 132.092 120.373 128.838C119.472 125.585 121.88 124.349 121.88 124.349L126.533 126.33L126.891 131.985Z" fill="white"/>
<path opacity="0.1" d="M126.891 131.985L126.268 134.653C126.268 134.653 121.273 132.092 120.373 128.838C119.472 125.585 121.88 124.349 121.88 124.349L126.533 126.33L126.891 131.985Z" fill="black"/>
<path d="M98.8635 222.789C98.8635 222.789 94.2446 224.494 91.0692 224.709C89.3833 224.822 88.4971 223.784 88.041 222.783C87.7918 222.227 87.6311 221.635 87.5647 221.029L87.9775 216.432L88.1969 213.984L94.9432 212.224L95.8988 215.159L95.9883 215.382C96.3722 216.363 97.9108 220.35 97.8647 221.182C97.8628 221.396 97.9037 221.607 97.9851 221.804C98.0664 222.001 98.1865 222.179 98.3381 222.328C98.493 222.504 98.6695 222.658 98.8635 222.789Z" fill="white"/>
<path d="M130.413 220.452C130.424 220.591 130.411 220.732 130.372 220.866C130.372 220.866 120.494 222.522 118.473 220.866C117.903 220.383 117.239 220.024 116.523 219.813C115.808 219.602 115.056 219.544 114.316 219.643C114.316 219.643 110.494 219.747 109.856 218.483C109.591 217.952 109.66 216.922 109.824 215.907C109.992 214.956 110.216 214.016 110.494 213.091L110.647 212.969L111.556 212.236L122.203 211.92H122.284C122.232 214.106 125.898 216.615 125.898 216.615C129.792 218.065 130.367 219.703 130.413 220.452Z" fill="white"/>
<path opacity="0.1" d="M130.413 220.452C130.423 220.591 130.408 220.732 130.37 220.866C130.37 220.866 120.494 222.522 118.473 220.866C117.904 220.383 117.24 220.024 116.525 219.814C115.809 219.603 115.058 219.545 114.319 219.643C114.319 219.643 110.494 219.747 109.859 218.483C109.593 217.949 109.66 216.922 109.824 215.907C111.297 216.055 113.62 216.423 114.533 217.302C115.913 218.639 118.251 219.973 119.686 220.078C120.809 220.15 127.526 220.365 130.413 220.452Z" fill="black"/>
<path opacity="0.1" d="M98.8635 222.789C98.8635 222.789 94.2447 224.494 91.0692 224.709C89.3834 224.822 88.4971 223.784 88.0439 222.78C89.2188 223.178 90.8498 223.595 91.7072 223.213C92.7234 222.76 96.3261 222.467 98.3468 222.342C98.5006 222.512 98.6741 222.662 98.8635 222.789Z" fill="black"/>
<path d="M105.717 85.3693C101.906 83.8816 97.0042 78.966 98.2282 76.6691C98.5 76.0895 98.6616 75.464 98.7045 74.8247C98.7833 73.9569 98.7949 73.0842 98.7392 72.2146C98.6534 70.7904 98.4827 69.3726 98.2282 67.9689C98.2282 67.9689 110.125 68.2386 109.432 69.999C109.23 70.5152 109.198 71.4113 109.253 72.4147C109.308 73.4181 109.452 74.5521 109.602 75.512C109.81 76.8286 110.018 77.8321 110.018 77.8321C110.018 77.8321 109.29 78.8558 108.863 78.9109C108.436 78.966 111.184 87.4893 105.717 85.3693Z" fill="#CF6F80"/>
<path opacity="0.1" d="M95.9796 215.382L95.8901 215.481C92.3336 211.16 88.0322 216.545 88.0322 216.545L87.9688 216.432L88.1882 213.984L94.9346 212.224L95.8901 215.159L95.9796 215.382Z" fill="black"/>
<path opacity="0.1" d="M122.287 212.224C122.287 212.224 119.689 212.169 118.303 213.399C116.917 214.628 110.22 213.665 110.509 213.399C110.594 213.266 110.646 213.115 110.659 212.958L111.568 212.224L122.214 211.908C122.255 212.102 122.287 212.224 122.287 212.224Z" fill="black"/>
<path d="M100.405 178.29C100.211 178.771 100.064 179.269 99.9662 179.778C99.7255 181.172 99.6586 182.59 99.767 184.001C99.8738 186.031 99.767 199.635 99.767 199.635C99.767 199.635 97.4836 203.263 96.2105 204.542C94.9374 205.821 98.8086 208.118 98.8086 208.118C99.386 211.424 95.8872 215.159 95.8872 215.159C92.3307 210.838 88.0294 216.226 88.0294 216.226C88.0294 216.226 85.6911 212.166 85.108 210.716C84.5249 209.266 87.3914 208.263 88.3989 207.674C89.4064 207.085 88.3498 203.614 88.3498 203.614C88.3498 203.614 87.4982 200.572 86.4879 197.796C85.4775 195.021 87.6022 181.205 87.6022 181.205C87.6022 181.205 87.7119 178.752 87.9746 177.896C88.1071 177.279 88.1335 176.643 88.0525 176.017C88.0352 175.805 88.015 175.628 88.0005 175.509C87.9861 175.39 87.9746 175.335 87.9746 175.335L88.015 175.266L89.4584 172.563C89.4584 172.563 101.098 176.588 100.405 178.29Z" fill="#00B0FF"/>
<path d="M122.287 211.905C122.287 211.905 119.688 211.85 118.303 213.065C116.917 214.28 110.22 213.332 110.509 213.065C110.797 212.798 110.774 210.823 110.774 210.823C106.845 205.435 110.197 203.248 110.197 203.248C110.197 203.248 108.442 194.766 108.124 191.619C107.902 189.421 107.628 183.513 107.48 180.141C107.417 178.691 107.379 177.693 107.379 177.693L110.589 177.043L111.002 176.959L118.744 175.399C118.744 175.399 118.958 176.849 119.102 178.035C119.174 178.542 119.215 179.052 119.224 179.564C119.172 180.144 119.224 181.959 119.224 181.959L119.486 187.402C119.315 187.973 119.226 188.566 119.224 189.163C119.276 189.856 120.283 199.78 120.283 199.78C120.283 199.78 122.035 205.702 121.438 206.128C120.84 206.555 122.287 211.905 122.287 211.905Z" fill="#00B0FF"/>
<path opacity="0.1" d="M109.432 69.999C109.23 70.5152 109.198 71.4113 109.253 72.4147C107.659 73.3787 105.828 73.8716 103.968 73.8367C102.108 73.8018 100.296 73.2406 98.7394 72.2175C98.6537 70.7923 98.4831 69.3736 98.2285 67.9689C98.2285 67.9689 110.125 68.2328 109.432 69.999Z" fill="black"/>
<path d="M114.03 63.5898C114.033 64.6349 113.869 65.6736 113.545 66.6668C112.822 68.8922 111.339 70.7891 109.358 72.0223C107.378 73.2554 105.027 73.7454 102.721 73.4056C100.415 73.0659 98.3037 71.9182 96.7589 70.1655C95.2141 68.4128 94.3358 66.1679 94.2793 63.8276C94.2793 63.7464 94.2793 63.671 94.2793 63.5898C94.2568 62.2725 94.4958 60.9639 94.9821 59.7403C95.4684 58.5167 96.1923 57.4026 97.1117 56.4631C98.0311 55.5235 99.1275 54.7773 100.337 54.2679C101.546 53.7585 102.845 53.4961 104.156 53.4961C105.468 53.4961 106.766 53.7585 107.976 54.2679C109.185 54.7773 110.281 55.5235 111.201 56.4631C112.12 57.4026 112.844 58.5167 113.331 59.7403C113.817 60.9639 114.056 62.2725 114.033 63.5898H114.03Z" fill="#CF6F80"/>
<path opacity="0.1" d="M105.717 85.3693C101.906 83.8816 97.0042 78.966 98.2282 76.6691C98.5 76.0895 98.6616 75.4639 98.7045 74.8247L103.921 79.1313L107.148 81.7906L109.602 75.5149C109.81 76.8315 110.018 77.8349 110.018 77.8349C110.018 77.8349 109.29 78.8587 108.863 78.9138C108.436 78.9689 111.184 87.4893 105.717 85.3693Z" fill="black"/>
<path d="M119.206 104.402L114.85 177.919L109.169 178.293L94.4583 135.665L96.8717 85.0561L97.3797 74.3636L103.921 79.7606L107.151 82.42L109.677 75.9615L114.374 80.0738L119.206 104.402Z" fill="#00B0FF"/>
<path opacity="0.1" d="M100.405 178.29C100.211 178.771 100.064 179.269 99.9663 179.778C95.8324 179.137 91.8175 177.877 88.0554 176.04L87.9775 175.999L88.0035 175.532L88.0179 175.289L89.4613 172.586C89.4613 172.586 101.098 176.588 100.405 178.29Z" fill="black"/>
<path opacity="0.1" d="M110.656 179.79C109.599 179.97 108.533 180.092 107.463 180.155C107.399 178.705 107.362 177.708 107.362 177.708L110.572 177.058L110.656 179.79Z" fill="black"/>
<path opacity="0.1" d="M119.085 178.05C117.033 178.586 113.863 179.189 111.025 178.812L110.985 176.974L118.727 175.414C118.727 175.414 118.941 176.849 119.085 178.05Z" fill="black"/>
<path opacity="0.1" d="M110.973 179.149C99.1378 181.179 88.2979 175.358 88.2979 175.358L88.4019 173.386C88.4019 173.386 88.6703 151.03 87.9256 149.316C87.1808 147.602 86.6005 138.91 87.022 137.576C87.4435 136.242 85.4833 116.238 85.4833 116.238L85.1658 108.117L73.5437 103.387L78.7398 92.5064C79.4417 90.9808 80.0453 89.4116 80.547 87.8083C81.4505 84.9836 85.645 82.2083 85.645 82.2083C85.645 82.2083 89.9463 79.4358 91.6466 79.5402C93.3469 79.6446 95.5755 77.0867 95.5755 77.0867C97.221 72.8729 98.7105 74.7812 98.7105 74.7812C98.7105 74.9813 98.7105 74.7812 98.6297 75.4047C98.0524 80.0303 107.965 94.6467 108.107 94.9048L109.051 118.007L110.006 147.242L110.973 179.149Z" fill="black"/>
<path d="M110.656 179.149C98.8203 181.179 87.9776 175.358 87.9776 175.358L88.0844 173.386C88.0844 173.386 88.3528 151.03 87.6052 149.316C86.8575 147.602 86.2801 138.91 86.7045 137.576C87.1288 136.242 85.1658 116.238 85.1658 116.238L84.8454 108.117L73.2175 103.37L78.4137 92.489C79.114 90.9628 79.7176 89.3936 80.2208 87.7909C81.1215 84.9662 85.3188 82.1909 85.3188 82.1909C85.3188 82.1909 89.6201 79.4184 91.3176 79.5228C93.015 79.6272 95.2465 77.0693 95.2465 77.0693C96.8948 72.8555 98.7106 74.7638 98.7106 74.7638C98.7106 74.9639 98.5374 75.0538 98.6298 75.3873C99.8999 79.8737 107.648 94.6293 107.789 94.8874L108.745 117.989L109.7 147.225L110.656 179.149Z" fill="white"/>
<path opacity="0.1" d="M107.466 95.5457C106.193 95.0121 99.4493 87.2776 99.4493 87.2776V85.5172C99.2039 84.9372 97.7461 85.291 96.5625 85.697L97.0706 75.0045L97.6479 75.4859C98.9123 79.9694 107.319 95.2876 107.466 95.5457Z" fill="black"/>
<path d="M107.786 94.9047C106.51 94.3711 99.7669 86.6366 99.7669 86.6366V84.8763C99.5215 84.2963 98.0637 84.6501 96.8801 85.0561L97.3911 74.3636L97.9684 74.845C99.2357 79.3285 107.645 94.6495 107.786 94.9047Z" fill="white"/>
<path opacity="0.1" d="M88.2979 133.479C88.4567 133.479 96.5281 132.626 96.5281 132.626C96.5281 132.626 101.415 142.28 101.095 144.629C100.774 146.978 100.194 149.058 98.2284 148.689C96.2625 148.321 87.6484 148.979 87.6484 148.979L88.2979 133.479Z" fill="black"/>
<path d="M87.9774 132.838C88.1362 132.838 96.2076 131.985 96.2076 131.985C96.2076 131.985 101.092 141.642 100.774 143.988C100.457 146.335 99.8709 148.417 97.9079 148.049C95.9449 147.68 87.3279 148.339 87.3279 148.339L87.9774 132.838Z" fill="white"/>
<path d="M94.0599 128.305C94.0599 128.305 101.467 132.304 101.626 133.525C101.785 134.746 97.856 132.991 97.0072 132.78C96.4486 132.644 95.88 132.555 95.3069 132.513L89.646 132.667L94.0599 128.305Z" fill="#CF6F80"/>
<path opacity="0.1" d="M105.399 96.0445C105.829 96.0445 106.178 95.6939 106.178 95.2615C106.178 94.829 105.829 94.4785 105.399 94.4785C104.968 94.4785 104.62 94.829 104.62 95.2615C104.62 95.6939 104.968 96.0445 105.399 96.0445Z" fill="black"/>
<path d="M105.399 95.7255C105.829 95.7255 106.178 95.3749 106.178 94.9425C106.178 94.51 105.829 94.1594 105.399 94.1594C104.968 94.1594 104.62 94.51 104.62 94.9425C104.62 95.3749 104.968 95.7255 105.399 95.7255Z" fill="#3F3D56"/>
<path opacity="0.1" d="M106.834 129.94C107.264 129.94 107.613 129.59 107.613 129.157C107.613 128.725 107.264 128.374 106.834 128.374C106.403 128.374 106.054 128.725 106.054 129.157C106.054 129.59 106.403 129.94 106.834 129.94Z" fill="black"/>
<path d="M106.834 129.619C107.264 129.619 107.613 129.268 107.613 128.836C107.613 128.403 107.264 128.053 106.834 128.053C106.403 128.053 106.054 128.403 106.054 128.836C106.054 129.268 106.403 129.619 106.834 129.619Z" fill="#3F3D56"/>
<path opacity="0.1" d="M106.176 112.992C106.606 112.992 106.955 112.642 106.955 112.209C106.955 111.777 106.606 111.426 106.176 111.426C105.745 111.426 105.396 111.777 105.396 112.209C105.396 112.642 105.745 112.992 106.176 112.992Z" fill="black"/>
<path d="M106.176 112.673C106.606 112.673 106.955 112.323 106.955 111.89C106.955 111.458 106.606 111.107 106.176 111.107C105.745 111.107 105.396 111.458 105.396 111.89C105.396 112.323 105.745 112.673 106.176 112.673Z" fill="#3F3D56"/>
<path d="M124.143 132.35C124.143 132.35 124.674 133.151 124.143 133.525C123.612 133.899 124.195 134.804 124.195 134.804C124.195 134.804 122.87 135.584 123.453 136.286C124.036 136.988 123.666 140.157 123.666 140.157L122.073 142.808C122.073 142.808 122.168 144.516 122.174 146.825C122.174 150.427 121.963 155.49 120.797 157.799L120.959 176.739C120.959 176.739 115.379 178.786 110.708 178.163L110.015 147.77C110.015 147.77 111.025 130.535 111.398 127.229C111.616 125.513 111.704 123.782 111.663 122.052C111.663 122.052 111.505 116.879 110.97 114.477C110.97 114.477 110.393 104.075 110.335 101.195C110.309 99.8175 110.382 95.798 110.462 91.9757C110.552 87.7967 110.653 83.8555 110.653 83.8555L109.599 75.4801C109.599 75.4801 110.653 75.3728 110.97 75.7991C111.113 75.9326 111.267 76.052 111.432 76.1558C113.251 77.3912 119.677 81.1903 119.677 81.1903C119.677 81.1903 123.233 82.6114 124.085 84.6472C124.937 86.6831 125.528 88.1273 125.941 88.7073C126.354 89.2873 126.579 92.0134 126.579 92.0134C126.579 92.0134 127.803 97.0305 128.759 97.8802C129.714 98.73 130.413 104.136 130.413 104.136L121.969 110.806C121.969 110.806 121.227 121.902 121.068 122.331C120.91 122.76 124.143 132.35 124.143 132.35Z" fill="white"/>
<path d="M124.463 132.35C124.463 132.35 124.991 133.151 124.463 133.525C123.935 133.899 124.512 134.804 124.512 134.804C124.512 134.804 123.196 135.593 123.773 136.295C124.351 136.996 123.987 140.166 123.987 140.166L122.393 142.817C122.393 142.817 122.489 144.525 122.497 146.833C122.497 150.435 122.287 155.499 121.12 157.807L121.279 176.748C121.279 176.748 115.69 178.795 111.025 178.172L110.335 147.779C110.335 147.779 111.346 130.544 111.718 127.238C111.936 125.521 112.024 123.791 111.981 122.061C111.981 122.061 111.822 116.887 111.291 114.486C111.291 114.486 110.713 104.083 110.653 101.204C110.627 99.8262 110.702 95.8067 110.78 91.9844C110.869 87.8054 110.97 83.8642 110.97 83.8642L109.579 75.3757C109.579 75.3757 110.97 75.3757 111.291 75.8078C111.432 75.9429 111.587 76.0624 111.753 76.1645C113.571 77.4 120 81.199 120 81.199C120 81.199 123.554 82.6201 124.405 84.6559C125.257 86.6918 125.849 88.136 126.265 88.716C126.68 89.296 126.9 92.0221 126.9 92.0221C126.9 92.0221 128.124 97.0392 129.079 97.8889C130.035 98.7387 130.725 104.133 130.725 104.133L122.281 110.803C122.281 110.803 121.539 121.899 121.377 122.328C121.216 122.757 124.463 132.35 124.463 132.35Z" fill="white"/>
<path opacity="0.1" d="M114.351 86.3263L115.113 88.5594L111.1 92.6195C111.19 88.4434 111.291 84.4993 111.291 84.4993L109.899 76.0108C109.899 76.0108 111.291 76.0108 111.611 76.4429C111.752 76.5776 111.907 76.6963 112.073 76.7967L115.485 86.686L114.351 86.3263Z" fill="black"/>
<path d="M114.03 85.6854L114.795 87.9185L110.783 91.9786C110.872 87.7996 110.973 83.8584 110.973 83.8584L109.579 75.3699C109.579 75.3699 110.973 75.3699 111.291 75.802C111.432 75.9363 111.587 76.0558 111.753 76.1587L115.168 86.045L114.03 85.6854Z" fill="white"/>
<path opacity="0.1" d="M114.03 63.5898C114.033 64.6349 113.869 65.6736 113.545 66.6668C113.491 66.6753 113.435 66.6728 113.382 66.6594C113.328 66.6459 113.278 66.6218 113.234 66.5885C113.159 63.9784 111.88 61.5279 110.307 59.4427C109.865 58.8132 109.329 58.2556 108.719 57.7897C108.102 57.324 107.334 57.1058 106.565 57.1778C105.699 57.2967 104.934 57.8883 104.06 57.9637C102.905 58.0594 101.871 57.2561 100.725 57.2155C100.259 57.2199 99.7999 57.3241 99.3773 57.5212C98.9547 57.7182 98.5787 58.0035 98.2746 58.3581C97.6725 59.0736 97.2252 59.9072 96.9611 60.8057C96.5072 62.1683 96.26 63.5918 96.2278 65.0282C96.2134 65.8403 96.1355 66.8582 95.3849 67.154C95.4414 66.5568 95.3738 65.9543 95.1865 65.3847C94.9992 64.8151 94.6961 64.2908 94.2966 63.845L94.2793 63.8276C94.2793 63.7464 94.2793 63.671 94.2793 63.5898C94.2568 62.2725 94.4958 60.9639 94.9821 59.7403C95.4684 58.5167 96.1923 57.4026 97.1117 56.4631C98.0311 55.5235 99.1275 54.7773 100.337 54.2679C101.546 53.7585 102.845 53.4961 104.156 53.4961C105.468 53.4961 106.766 53.7585 107.976 54.2679C109.185 54.7773 110.281 55.5235 111.201 56.4631C112.12 57.4026 112.844 58.5167 113.331 59.7403C113.817 60.9639 114.056 62.2725 114.033 63.5898H114.03Z" fill="black"/>
<path d="M108.245 47.8337C106.745 47.1249 105.039 46.9908 103.448 47.4567C102.648 47.6945 101.894 48.0802 101.083 48.2746C99.3513 48.6951 97.3306 48.2398 95.8439 49.2577C95.0183 49.8377 94.5218 50.7541 94.0599 51.6444L92.9052 53.8543C92.2759 55.0636 91.6408 56.2932 91.3781 57.6244C91.1154 58.9555 91.2742 60.4461 92.1142 61.5163C92.7262 62.2964 93.6298 62.7865 94.2937 63.5202C94.6915 63.9665 94.9932 64.4905 95.18 65.0594C95.3668 65.6283 95.4346 66.2298 95.3792 66.8263C96.1326 66.5363 96.2048 65.5155 96.2221 64.7034C96.2543 63.267 96.5014 61.8435 96.9553 60.4809C97.2188 59.5821 97.6662 58.7484 98.2688 58.0333C98.5732 57.679 98.9492 57.3939 99.3718 57.1969C99.7944 56.9999 100.254 56.8955 100.72 56.8907C101.874 56.9313 102.911 57.7317 104.054 57.636C104.92 57.5635 105.688 56.969 106.56 56.853C107.328 56.7799 108.096 56.9981 108.713 57.4649C109.323 57.9301 109.858 58.4878 110.298 59.1179C111.874 61.2031 113.153 63.6478 113.228 66.2637C113.554 66.5044 114.025 66.1912 114.186 65.82C114.348 65.4488 114.354 65.0138 114.559 64.6599C114.795 64.251 115.249 64.0335 115.604 63.7261C116.504 62.946 116.73 61.6323 116.695 60.4403C116.66 59.2484 116.429 58.0391 116.655 56.8675C116.79 56.1482 117.096 55.4754 117.264 54.7649C117.431 54.0544 117.451 53.2569 117.056 52.645C116.478 51.7459 115.263 51.569 114.204 51.4849C113 51.3805 111.923 51.5139 111.155 50.496C110.795 49.9648 110.389 49.4661 109.943 49.0054C109.79 48.8546 108.245 47.8975 108.245 47.8337Z" fill="#512E4E"/>
<path opacity="0.1" d="M76.8691 108.99L73.8525 103.387L72.897 112.033C72.897 112.033 73.4281 115.872 73.3213 116.461C73.2145 117.05 75.4979 122.328 75.4979 122.328C75.4979 122.328 83.0411 135.825 86.1213 136.521L96.5281 129.05L93.7683 125.529C93.7683 125.529 92.8128 125.155 92.5732 125.529C92.5732 125.529 87.4492 116.673 86.918 116.032C86.3868 115.391 86.4908 114.112 86.4908 114.112C86.4908 114.112 85.694 113.259 85.9596 112.459C86.2252 111.658 84.4209 108.883 84.4209 108.883L86.0664 107.337L76.8691 108.99Z" fill="black"/>
<path d="M74.0113 102.749L73.2145 103.387L72.259 112.033C72.259 112.033 72.7902 115.872 72.6833 116.461C72.5765 117.05 74.8629 122.328 74.8629 122.328C74.8629 122.328 82.4031 135.825 85.4833 136.521L95.893 129.05L93.1304 125.529C93.1304 125.529 92.1748 125.155 91.9352 125.529C91.9352 125.529 86.8112 116.673 86.28 116.032C85.7489 115.391 85.8557 114.112 85.8557 114.112C85.8557 114.112 85.0589 113.259 85.3245 112.459C85.5901 111.658 83.783 108.883 83.783 108.883L85.4285 107.337L74.0113 102.749Z" fill="white"/>
<path opacity="0.1" d="M123.453 136.616C124.03 137.321 123.666 140.485 123.666 140.485L122.073 143.136C122.073 143.136 122.168 144.847 122.174 147.152L119.495 147.993C119.253 148.069 118.996 148.086 118.746 148.042C118.497 147.998 118.261 147.895 118.059 147.741C117.857 147.587 117.695 147.386 117.585 147.156C117.476 146.926 117.423 146.673 117.431 146.419L117.893 131.451L124.143 133.853C123.612 134.224 124.195 135.135 124.195 135.135C124.195 135.135 122.87 135.912 123.453 136.616Z" fill="black"/>
<path d="M123.773 136.295C124.351 136.999 123.987 140.166 123.987 140.166L122.393 142.817C122.393 142.817 122.489 144.525 122.497 146.833L119.769 147.689C119.532 147.763 119.281 147.779 119.036 147.736C118.792 147.692 118.561 147.591 118.364 147.44C118.166 147.289 118.007 147.093 117.9 146.868C117.793 146.643 117.741 146.395 117.749 146.146L118.213 131.132L124.466 133.534C123.932 133.905 124.515 134.813 124.515 134.813C124.515 134.813 123.196 135.593 123.773 136.295Z" fill="white"/>
<path d="M125.843 129.16C125.843 129.16 125.419 131.884 124.356 132.043C123.294 132.203 122.818 136.448 121.758 136.297C120.699 136.147 121.4 132.35 121.438 131.614C121.475 130.877 120.283 127.826 121.175 127.133C122.067 126.44 124.891 127.133 124.891 127.133L125.843 129.16Z" fill="#CF6F80"/>
<path opacity="0.1" d="M128.103 108.19L130.107 104.13C130.107 104.13 130.904 107.224 130.904 108.877C130.904 110.53 132.018 110.693 132.018 110.693C132.018 110.693 133.239 112.143 132.595 113.198C131.952 114.254 131.692 116.881 131.692 116.881C131.692 116.881 131.902 121.896 130.947 122.589C129.991 123.282 129.792 124.938 129.792 124.938C129.792 124.938 128.037 128.084 128.092 128.833C128.147 129.581 125.65 134.647 125.65 134.647C125.65 134.647 126.871 128.351 119.755 125.631C119.755 125.631 119.7 123.494 120.231 122.908C120.762 122.322 121.591 122.055 121.071 119.094C120.552 116.133 120.921 112.595 120.921 111.885C120.921 111.174 122.515 106.743 122.515 106.743L128.103 108.19Z" fill="black"/>
<path d="M128.969 103.55L130.719 104.13C130.719 104.13 131.518 107.224 131.518 108.877C131.518 110.53 132.633 110.693 132.633 110.693C132.633 110.693 133.854 112.143 133.21 113.198C132.566 114.254 132.309 116.881 132.309 116.881C132.309 116.881 132.52 121.896 131.565 122.589C130.609 123.282 130.396 124.938 130.396 124.938C130.396 124.938 128.643 128.084 128.698 128.833C128.753 129.581 126.253 134.647 126.253 134.647C126.253 134.647 127.477 128.351 120.358 125.631C120.358 125.631 120.306 123.494 120.837 122.908C121.369 122.322 122.197 122.055 121.677 119.094C121.158 116.133 121.527 112.595 121.527 111.885C121.527 111.174 123.121 106.743 123.121 106.743L128.969 103.55Z" fill="white"/>
<path opacity="0.1" d="M90.3303 208.785C90.3303 208.785 93.1189 207.024 94.9491 208.303C96.7793 209.582 90.3303 208.785 90.3303 208.785Z" fill="black"/>
<path opacity="0.1" d="M111.998 203.341C111.998 203.341 114.466 203.022 116.539 205.264C118.612 207.506 111.998 203.341 111.998 203.341Z" fill="black"/>
<g opacity="0.1">
<path d="M115.609 63.091C115.254 63.3984 114.798 63.6188 114.562 64.0277C114.359 64.3786 114.354 64.8107 114.192 65.1877C114.03 65.5648 113.56 65.8722 113.234 65.6344C113.159 63.0243 111.877 60.5737 110.304 58.4857C109.864 57.8555 109.329 57.2979 108.719 56.8327C108.101 56.366 107.332 56.1478 106.562 56.2207C105.696 56.3396 104.934 56.9313 104.059 57.0038C102.905 57.1024 101.868 56.299 100.722 56.2584C100.257 56.2631 99.7974 56.3677 99.3752 56.5653C98.953 56.7628 98.5777 57.0488 98.2745 57.404C97.6719 58.118 97.2245 58.9507 96.961 59.8487C96.5074 61.2114 96.2602 62.6348 96.2278 64.0712C96.2104 64.8803 96.1354 65.8896 95.3906 66.1912C95.4079 66.4054 95.4079 66.6207 95.3906 66.835C96.1412 66.545 96.2162 65.5242 96.2335 64.7121C96.2657 63.2756 96.5129 61.8522 96.9668 60.4896C97.2303 59.5908 97.6776 58.7571 98.2803 58.042C98.5841 57.6878 98.9596 57.4027 99.3817 57.2056C99.8038 57.0086 100.263 56.9042 100.728 56.8994C101.883 56.94 102.922 57.7404 104.065 57.6447C104.931 57.5722 105.699 56.9777 106.568 56.8616C107.338 56.7887 108.107 57.0069 108.725 57.4736C109.335 57.9388 109.869 58.4965 110.309 59.1266C111.883 61.2118 113.164 63.6565 113.239 66.2724C113.566 66.5131 114.036 66.1999 114.198 65.8287C114.359 65.4575 114.365 65.0224 114.567 64.6686C114.804 64.2597 115.26 64.0422 115.615 63.7348C116.516 62.9547 116.741 61.641 116.706 60.449C116.706 60.4113 116.706 60.3736 116.706 60.3388C116.652 61.3713 116.377 62.424 115.609 63.091Z" fill="black"/>
<path d="M94.2994 62.8851C93.6355 62.1514 92.729 61.6613 92.1199 60.8841C91.607 60.196 91.3141 59.3678 91.2799 58.5089C91.189 59.5822 91.4874 60.6523 92.1199 61.5221C92.729 62.3022 93.6355 62.7923 94.2994 63.526C94.9369 64.2437 95.3197 65.1534 95.3878 66.1129C95.432 65.529 95.3583 64.9421 95.1713 64.3875C94.9843 63.8328 94.6878 63.3218 94.2994 62.8851Z" fill="black"/>
<path d="M117.269 54.1298C117.099 54.8403 116.796 55.516 116.657 56.2323C116.575 56.711 116.545 57.1972 116.568 57.6824C116.578 57.406 116.608 57.1307 116.657 56.8588C116.796 56.1395 117.099 55.4667 117.269 54.7562C117.369 54.3643 117.401 53.9583 117.365 53.5556C117.347 53.749 117.315 53.9409 117.269 54.1298Z" fill="black"/>
</g>
<path opacity="0.1" d="M38.3162 220.576C53.8513 220.576 66.4449 218.544 66.4449 216.038C66.4449 213.531 53.8513 211.499 38.3162 211.499C22.7811 211.499 10.1875 213.531 10.1875 216.038C10.1875 218.544 22.7811 220.576 38.3162 220.576Z" fill="#00B0FF"/>
<path d="M39.2228 129.094H37.4128V170.034H39.2228V129.094Z" fill="#535461"/>
<path d="M50.5967 169.909L50.4841 171.754L50.3224 174.364L50.256 175.448L50.0973 178.058L50.028 179.143L49.8663 181.753L48.0419 211.354C47.9626 212.628 47.4032 213.823 46.4775 214.697C45.5519 215.571 44.3295 216.058 43.0593 216.058H33.5734C32.3034 216.058 31.0814 215.571 30.1562 214.697C29.2311 213.823 28.6723 212.627 28.5937 211.354L26.7779 181.733L26.6162 179.123L26.5498 178.038L26.3882 175.428L26.3218 174.343L26.1601 171.733L26.0447 169.889C26.0246 169.534 26.077 169.179 26.1985 168.845C26.3201 168.511 26.5083 168.205 26.7515 167.947C26.9948 167.689 27.2881 167.483 27.6133 167.343C27.9385 167.203 28.2888 167.13 28.6428 167.131H48.0448C48.3974 167.134 48.7456 167.21 49.068 167.353C49.3904 167.497 49.6801 167.705 49.9192 167.965C50.1583 168.226 50.3418 168.532 50.4583 168.867C50.5748 169.201 50.6219 169.556 50.5967 169.909Z" fill="#3F3D56"/>
<path d="M50.4839 171.754L50.3223 174.355H26.3101L26.1484 171.754H50.4839Z" fill="#9D9CB5"/>
<path d="M50.2561 175.44L50.0973 178.044H26.5383L26.3767 175.44H50.2561Z" fill="#9D9CB5"/>
<path d="M50.028 179.131L49.8692 181.733H26.7664L26.6047 179.131H50.028Z" fill="#9D9CB5"/>
<path d="M23.3859 144.438C33.9256 152.1 38.325 164.083 38.325 164.083C38.325 164.083 25.6232 163.645 15.0807 155.983C4.53824 148.321 0.147461 136.341 0.147461 136.341C0.147461 136.341 12.8434 136.776 23.3859 144.438Z" fill="#00B0FF"/>
<path d="M0.138672 136.341C0.138672 136.341 13.3254 143.693 17.5546 149.78C21.7837 155.867 38.3249 164.083 38.3249 164.083" stroke="#535461" stroke-width="2" stroke-miterlimit="10"/>
<path d="M30.1899 129.004C35.9259 133.171 38.3248 139.693 38.3248 139.693C38.3248 139.693 31.411 139.456 25.6721 135.288C19.9332 131.121 17.54 124.596 17.54 124.596C17.54 124.596 24.451 124.833 30.1899 129.004Z" fill="#00B0FF"/>
<path d="M17.54 124.596C17.54 124.596 24.7166 128.598 27.0173 131.91C29.3181 135.222 38.3248 139.693 38.3248 139.693" stroke="#535461" stroke-width="2" stroke-miterlimit="10"/>
<path d="M46.6534 139.363C40.0628 146.639 38.6685 156.148 38.6685 156.148C38.6685 156.148 47.9611 153.857 54.5458 146.578C61.1305 139.299 62.5306 129.793 62.5306 129.793C62.5306 129.793 53.2439 132.087 46.6534 139.363Z" fill="#00B0FF"/>
<path d="M62.5364 129.795C62.5364 129.795 53.9511 137.254 51.7687 142.393C49.5863 147.532 38.6685 156.148 38.6685 156.148" stroke="#535461" stroke-width="2" stroke-miterlimit="10"/>
<path d="M288.582 136.802C288.582 136.802 283.816 112.981 285.64 110.017C285.64 110.017 285.707 107.262 285.597 103.75C285.597 103.617 285.597 103.483 285.597 103.347C285.918 103.562 286.253 103.756 286.599 103.927C288.28 104.794 290.21 105.045 292.055 104.634L290.611 103.019C290.265 102.633 289.904 102.216 289.829 101.705C289.754 101.195 289.962 100.74 290.141 100.284C291.512 96.8043 291.584 92.4281 288.943 89.7716C286.711 87.5386 286.169 84.6559 283.747 82.6172C281.977 81.1236 281.004 78.9341 280.086 76.817C279.31 75.0277 278.527 73.2238 278.083 71.3272C277.736 69.8453 277.598 68.3111 277.122 66.864C276.645 65.4169 275.753 64.0103 274.359 63.3636C273.862 63.1345 273.311 63.004 272.858 62.6995C272.263 62.2964 271.905 61.641 271.475 61.0668C269.29 58.1667 261.972 59.8748 258.508 61.0523C257.566 61.3488 256.694 61.8342 255.944 62.4791L255.976 62.4269C256.002 62.3834 256.034 62.3399 256.063 62.2964C255.683 62.6044 255.356 62.9716 255.093 63.3839C254.587 64.1872 254.377 65.124 253.955 65.994C253.447 67.0235 250.621 69.8975 251.836 71.0546C251.921 71.1323 252.019 71.195 252.125 71.2402C252.581 71.431 253.084 71.4814 253.568 71.3852L253.516 71.5099C253.101 72.5308 252.889 73.6233 252.89 74.7261C252.89 79.4909 256.802 83.3538 261.631 83.3538C262.539 83.3547 263.442 83.2148 264.307 82.9391C264.327 83.0493 264.345 83.1595 264.365 83.2697C264.365 83.3132 264.379 83.3567 264.385 83.4002L264.232 83.6148C264.224 83.6016 264.216 83.589 264.206 83.5771L259.674 89.9398C258.981 90.43 254.992 93.33 254.766 95.5051C254.53 97.886 254.293 100.673 254.293 100.673L254.261 101.27C254.063 101.437 253.831 101.558 253.582 101.625C253.333 101.693 253.072 101.705 252.818 101.662C251.403 101.43 251.403 106.882 251.403 106.882C251.403 106.882 250.462 107.752 249.816 106.998C249.169 106.244 247.46 108.799 247.46 108.799L236.75 109.263L236.505 109.278L235.927 107.482C235.865 107.293 235.731 107.136 235.554 107.045C235.378 106.955 235.172 106.938 234.983 106.998C234.939 107.013 234.895 107.031 234.853 107.053L234.813 107.076L234.738 107.129L234.7 107.163C234.68 107.182 234.66 107.203 234.643 107.224L234.608 107.265L234.591 107.282C234.524 107.375 234.48 107.482 234.462 107.595C234.444 107.707 234.452 107.823 234.487 107.932L234.983 109.472C232.916 109.889 230.803 111.067 232.527 114.309L223.791 112.688L226.617 115.072L241.207 118.097C241.014 118.445 241.141 118.949 241.744 119.66C244.342 122.725 249.077 123.557 250.982 123.772C251.485 124.903 252.113 125.973 252.855 126.962L252.691 130.016C252.691 130.016 247.867 153.292 246.984 154.472C247.43 153.965 247.838 153.425 248.205 152.857C246.805 157.639 244.847 164.185 244.334 165.165C243.508 166.731 242.743 173.067 243.684 173.473C243.973 173.598 244.798 173.537 245.976 173.447V173.972L245.924 193.864C245.924 193.864 246.161 206.064 245.511 207.227C244.862 208.39 244.689 210.829 244.689 210.829C244.689 210.829 242.091 215.64 240.032 217.575C240.018 217.59 240.003 217.603 239.986 217.615L239.923 217.163C239.923 217.163 237.449 220.301 231.975 220.124C231.975 220.124 228.681 222.276 233.566 222.392C238.45 222.508 244.689 222.218 244.689 222.218C244.689 222.218 249.045 215.548 252.694 216.418V221.472H253.811V216.336C254.329 215.994 254.772 215.549 255.114 215.029C255.456 214.509 255.689 213.925 255.8 213.312C255.895 212.68 255.825 212.033 255.597 211.437C255.368 210.84 254.988 210.314 254.495 209.91C254.273 209.709 254.096 209.464 253.973 209.19C253.85 208.917 253.785 208.621 253.782 208.321L253.742 208.355C253.742 208.254 253.716 208.15 253.704 208.042C253.384 205.432 252.982 200.047 254.4 196.062C256.343 190.598 256.931 182.989 255.517 178.459C255.06 177.011 254.686 175.538 254.394 174.048C254.359 173.859 254.328 173.679 254.299 173.511C255.266 173.643 256.223 173.836 257.165 174.091C260.442 174.999 267.61 175.167 273.73 175.118C273.744 175.286 273.761 175.463 273.782 175.64C273.891 176.869 274.119 178.085 274.463 179.271C275.231 181.591 275.583 191.819 275.583 191.819C275.583 191.819 276.573 200.229 276.033 203.652C275.745 205.554 275.456 207.465 275.291 209.385V209.423C275.291 209.423 273.669 214.063 272.482 216.583C272.454 216.647 272.422 216.711 272.393 216.771C272.077 216.8 271.765 216.87 271.466 216.977C271.466 216.977 269.876 220.167 268.291 220.695C266.706 221.223 267.231 222.96 270.82 222.322C274.408 221.684 279.826 221.162 279.826 221.162L280.06 217.908L281.163 216.522L280.874 219.767L282.049 219.535L281.893 215.588L283.698 213.32C283.698 213.32 285.877 211.372 282.638 207.538V207.622C282.603 207.567 282.572 207.509 282.534 207.454V207.436C281.997 206.601 281.57 205.044 282.352 202.28C283.767 197.286 284.59 192.753 284.59 192.753C284.59 192.753 287.748 180.61 283.952 174.865H284.119C283.73 174.057 283.455 173.198 283.302 172.313C283.283 172.209 283.266 172.102 283.25 171.991C286.059 171.829 288.816 171.319 291.065 170.217C291.056 170.205 289.702 141.39 288.582 136.802ZM252.922 116.705V116.763L252.344 116.792L252.922 116.705ZM250.941 116.98C250.846 117.001 250.758 117.044 250.682 117.105C250.433 117.458 250.277 117.868 250.228 118.297L249.328 118.094C249.328 118.094 248.695 117.957 247.786 117.804L247.356 117.369C248.54 117.27 249.769 117.125 250.941 116.98Z" fill="url(#paint1_linear_136_170)"/>
<path d="M280.742 215.629L280.398 219.738L281.55 219.506L281.377 215.049L280.742 215.629Z" fill="#1D2366"/>
<path d="M254.463 196.117C253.075 200.09 253.467 205.452 253.779 208.057C253.895 209.02 254.001 209.605 254.001 209.605C254.001 209.605 251.926 214.356 251.753 214.536C251.579 214.715 245.644 218.355 245.644 218.355L241.496 220.788C241.496 220.788 237.287 218.935 239.305 218.297C239.717 218.131 240.088 217.876 240.393 217.552C242.414 215.623 244.951 210.829 244.951 210.829C244.951 210.829 245.125 208.396 245.76 207.239C246.395 206.082 246.164 193.922 246.164 193.922L246.213 174.1V171.516L254.108 171.574C254.158 172.451 254.272 173.323 254.449 174.184C254.732 175.669 255.099 177.137 255.549 178.58C256.94 183.102 256.363 190.674 254.463 196.117Z" fill="#FFB0B1"/>
<path opacity="0.1" d="M254.001 209.605C254.001 209.605 251.926 214.356 251.753 214.536C251.579 214.715 245.644 218.355 245.644 218.355L241.496 220.788C241.496 220.788 237.287 218.935 239.305 218.297C239.717 218.131 240.088 217.876 240.393 217.552L240.572 218.819L241.955 218.761L253.791 208.063C253.895 209.02 254.001 209.605 254.001 209.605Z" fill="black"/>
<path d="M253.857 208.332L241.955 219.103L240.572 219.161L240.283 217.131C240.283 217.131 237.864 220.257 232.489 220.083C232.489 220.083 229.262 222.226 234.045 222.342C238.828 222.458 244.937 222.168 244.937 222.168C244.937 222.168 249.204 215.498 252.774 216.368V221.406H253.871V216.322C254.381 215.977 254.817 215.532 255.151 215.014C255.486 214.495 255.712 213.914 255.817 213.306C255.912 212.679 255.845 212.038 255.622 211.445C255.399 210.852 255.028 210.326 254.544 209.919C254.328 209.715 254.156 209.469 254.038 209.197C253.919 208.924 253.858 208.63 253.857 208.332Z" fill="#1D2366"/>
<path d="M281.839 202.312C281.071 205.067 281.489 206.618 282.015 207.451V207.468C282.688 208.496 283.157 209.645 283.394 210.852L283.441 211.113L278.025 219.045L275.086 220.205C275.086 220.205 270.361 218.584 271.224 218.12C271.44 218.007 271.778 217.404 272.165 216.571C273.32 214.063 274.913 209.434 274.913 209.434V209.397C275.081 207.485 275.346 205.58 275.641 203.683C276.169 200.27 275.199 191.892 275.199 191.892C275.199 191.892 274.853 181.704 274.102 179.387C273.763 178.209 273.538 177 273.429 175.779C273.273 174.329 273.239 173.134 273.239 173.134C273.239 173.134 276.351 168.784 282.055 173.482C282.511 173.857 282.913 174.294 283.247 174.781C287.188 180.413 284.015 192.82 284.015 192.82C284.015 192.82 283.221 197.332 281.839 202.312Z" fill="#FFB0B1"/>
<path opacity="0.1" d="M283.449 211.113L278.034 219.045L275.095 220.205C275.095 220.205 270.369 218.584 271.233 218.12C271.449 218.007 271.787 217.404 272.174 216.571C274.174 216.554 275.211 218.468 275.211 218.468L277.745 218.062C277.745 218.062 281.088 211.461 281.839 211.058C282.589 210.655 281.954 208.045 281.954 208.045V207.381C281.974 207.404 281.992 207.43 282.015 207.454V207.471C282.688 208.499 283.157 209.648 283.394 210.855L283.449 211.113Z" fill="black"/>
<path d="M275.384 218.639C275.384 218.639 273.94 215.977 271.175 216.96C271.175 216.96 269.619 220.15 268.063 220.666C266.507 221.182 267.027 222.922 270.543 222.287C274.059 221.652 279.359 221.127 279.359 221.127L279.59 217.882L283.164 213.309C283.164 213.309 285.294 211.369 282.124 207.549V208.213C282.124 208.213 282.759 210.823 282.009 211.227C281.258 211.63 277.927 218.233 277.927 218.233L275.384 218.639Z" fill="#1D2366"/>
<path opacity="0.1" d="M254.117 171.568C254.167 172.445 254.281 173.318 254.458 174.178C251.207 173.7 248.19 173.937 246.213 174.094V171.51L254.117 171.568Z" fill="black"/>
<path opacity="0.1" d="M283.568 175.503C283.568 175.503 278.949 175.73 273.441 175.776C273.285 174.326 273.25 173.131 273.25 173.131C273.25 173.131 276.362 168.781 282.067 173.479C282.523 173.854 282.924 174.291 283.259 174.778C283.348 175.026 283.451 175.268 283.568 175.503Z" fill="black"/>
<path d="M283.568 174.981C283.568 174.981 263.337 175.965 257.171 174.227C251.005 172.49 244.894 173.995 243.973 173.592C243.052 173.189 243.799 166.876 244.608 165.313C245.416 163.749 249.85 147.941 249.85 147.941L254.117 125.593L258.612 124.349L258.929 124.259L266.761 122.09L272.5 120.498C272.5 120.498 283.911 165.255 282.933 168.555C282.577 169.819 282.52 171.148 282.765 172.438C282.915 173.319 283.185 174.175 283.568 174.981Z" fill="#1D2366"/>
<path d="M239.244 110.31C239.244 110.31 235.203 114.66 238.263 117.084C241.323 119.509 243.335 117.316 243.335 117.316L239.244 110.31Z" fill="#C7DAF5"/>
<path opacity="0.1" d="M239.244 110.31C239.244 110.31 235.203 114.66 238.263 117.084C241.323 119.509 243.335 117.316 243.335 117.316L239.244 110.31Z" fill="black"/>
<path d="M271.896 81.7095C271.896 81.7095 271.423 82.1619 270.71 82.8289C269.694 83.783 268.19 85.1779 266.856 86.3467C265.009 87.962 263.484 89.1481 264.03 88.136C264.576 87.1239 264.472 85.3606 264.2 83.7105C264.18 83.6003 264.163 83.4901 264.143 83.3828C263.918 82.1709 263.62 80.9739 263.251 79.7983C263.251 79.7983 266.236 75.9238 267.887 74.3955C268.502 73.8155 268.932 73.5777 268.958 73.9808C268.987 74.5231 269.391 75.7208 269.893 76.991C269.908 77.0316 269.922 77.0693 269.939 77.1099C270.274 77.98 270.652 78.8732 270.984 79.6446C271.492 80.8278 271.896 81.7095 271.896 81.7095Z" fill="#FFB0B1"/>
<path opacity="0.1" d="M269.939 77.1099C269.659 78.6256 268.978 80.0378 267.969 81.1989C266.959 82.36 265.658 83.2274 264.2 83.7105C263.971 82.3866 263.654 81.0797 263.251 79.7983C263.251 79.7983 268.871 72.5046 268.958 73.9808C268.978 74.5405 269.417 75.7817 269.939 77.1099Z" fill="black"/>
<path opacity="0.1" d="M263.64 85.6593L264.368 84.6298C264.368 84.6298 264.85 87.5821 266.622 86.28C268.395 84.9778 268.481 96.0793 268.481 96.0793L266.579 124.654L252.832 123.827L253.222 110.02L254.778 103.06L258.626 92.9414L260.915 89.5976L263.64 85.6593Z" fill="black"/>
<path d="M268.481 96.2562L266.749 122.093L266.568 124.831L258.903 124.369L258.614 124.352L252.841 124.004L253.231 110.194L254.787 103.234L258.635 93.1154L260.924 89.7716L263.649 85.8188L264.376 84.7922C264.376 84.7922 264.859 87.7445 266.631 86.4424L266.669 86.4163C268.401 85.3142 268.481 96.2562 268.481 96.2562Z" fill="#1D2366"/>
<path d="M254.98 100.815C254.98 100.815 254.29 102.265 252.904 102.03C251.519 101.795 251.522 107.25 251.522 107.25C251.522 107.25 250.601 108.12 249.966 107.366C249.331 106.612 247.656 109.161 247.656 109.161L237.166 109.626C237.166 109.626 241.834 111.769 240.919 118.253C240.919 118.253 256.767 117.267 257.287 115.762C257.806 114.257 254.98 100.815 254.98 100.815Z" fill="white"/>
<path opacity="0.03" d="M254.98 100.815C254.98 100.815 254.29 102.265 252.904 102.03C251.519 101.795 251.522 107.25 251.522 107.25C251.522 107.25 250.601 108.12 249.966 107.366C249.331 106.612 247.656 109.161 247.656 109.161L237.166 109.626C237.166 109.626 241.834 111.769 240.919 118.253C240.919 118.253 256.767 117.267 257.287 115.762C257.806 114.257 254.98 100.815 254.98 100.815Z" fill="black"/>
<path d="M224.493 113.033L227.258 115.405L250.023 120.211L247.2 117.316L224.493 113.033Z" fill="white"/>
<path d="M263.684 86.5729C263.305 87.1529 262.223 90.1225 261.319 92.7152C260.566 94.8758 259.937 96.7753 259.937 96.7753C259.937 96.7753 258.467 106.386 257.717 108.123C256.966 109.86 257.373 116.635 257.373 116.635L254.576 133.365C254.576 133.365 253.309 141.993 251.351 147.147C249.42 152.219 247.269 154.597 247.203 154.672C248.069 153.495 252.789 130.312 252.789 130.312L254.348 101.073C254.348 101.073 254.576 98.2949 254.807 95.9198C255.038 93.5446 259.714 90.3024 259.714 90.3024L264.223 83.8613C264.677 84.4703 264.374 85.5317 263.684 86.5729Z" fill="white"/>
<path d="M251.926 124.149C251.926 124.149 245.286 123.859 242.07 119.979C238.854 116.098 249.504 118.43 249.504 118.43L252.272 119.068L251.926 124.149Z" fill="#FFB0B1"/>
<path opacity="0.1" d="M282.933 168.558C282.577 169.822 282.52 171.151 282.765 172.441C275.522 172.957 267.774 170.991 267.774 170.991C266.331 172.325 262.529 174.291 262.529 174.291L260.456 148.481C259.131 145.001 258.612 126.768 258.612 126.768C258.612 126.768 258.73 125.814 258.9 124.384C258.9 124.349 258.9 124.311 258.915 124.277C259.431 120.283 260.456 112.787 260.959 111.774C261.651 110.382 258.828 106.679 258.828 106.679L260.113 95.6733L260.269 94.345C262.976 93.1299 265.052 89.2496 265.052 89.2496L266.645 86.4452C268.378 85.3287 268.467 96.2707 268.467 96.2707L266.735 122.107L272.474 120.515C272.474 120.515 283.911 165.258 282.933 168.558Z" fill="black"/>
<path d="M290.366 170.341C282.471 174.28 268.121 170.631 268.121 170.631C266.677 171.965 262.875 173.932 262.875 173.932L260.8 148.121C259.478 144.641 258.958 126.408 258.958 126.408C258.958 126.408 260.627 112.804 261.319 111.415C261.521 111.009 261.423 110.406 261.184 109.756C260.006 106.664 259.572 103.336 259.919 100.044L260.474 95.3137L260.627 93.9883C263.337 92.7703 265.413 88.89 265.413 88.89L266.856 86.3495L269.512 81.6688L270.771 79.4532L270.984 79.6475L272.615 81.1323C272.615 81.1323 273.308 81.7123 274.347 82.5824C276.608 84.4964 280.514 87.8663 282.528 89.9282C284.301 91.7437 284.861 98.8053 285.023 104.121C285.129 107.622 285.066 110.365 285.066 110.365C283.279 113.32 287.953 137.046 287.953 137.046C289.041 141.631 290.366 170.341 290.366 170.341Z" fill="white"/>
<path opacity="0.03" d="M275.211 88.832C275.211 88.832 269.792 99.194 270.421 103.132C271.051 107.071 272.841 111.528 271.977 112.569C271.681 112.964 271.297 113.284 270.857 113.505C270.417 113.725 269.932 113.841 269.44 113.842C268.574 113.9 266.264 115.521 266.264 115.695C266.264 115.869 264.131 115.869 262.223 116.681C260.315 117.493 257.497 117.954 257.497 117.954C257.497 117.954 252.012 117.78 251.501 118.303C250.991 118.825 250.465 121.948 251.559 124.439C252.653 126.93 253.869 128.789 254.787 129.128C255.705 129.468 261.53 127.507 266.256 127.043C270.981 126.579 276.111 122.818 276.111 122.818C276.111 122.818 281.761 120.788 282.751 117.374C283.741 113.961 281.541 95.2006 281.541 95.2006C281.541 95.2006 279.878 86.4569 275.211 88.832Z" fill="black"/>
<path opacity="0.03" d="M274.518 87.962C274.518 87.962 269.099 98.3268 269.734 102.262C270.369 106.198 272.153 110.658 271.287 111.702C270.992 112.097 270.609 112.417 270.169 112.638C269.73 112.859 269.245 112.975 268.753 112.975C267.887 113.033 265.577 114.654 265.577 114.828C265.577 115.002 263.444 115.002 261.536 115.811C259.628 116.62 256.81 117.084 256.81 117.084C256.81 117.084 251.325 116.91 250.817 117.432C250.309 117.954 249.778 121.081 250.875 123.569C251.972 126.057 253.184 127.919 254.102 128.258C255.02 128.598 260.846 126.637 265.572 126.176C270.297 125.715 275.427 121.948 275.427 121.948C275.427 121.948 281.074 119.918 282.052 116.507C283.031 113.097 280.843 94.3305 280.843 94.3305C280.843 94.3305 279.186 85.5897 274.518 87.962Z" fill="black"/>
<path d="M275.04 88.31C275.04 88.31 269.622 98.6749 270.257 102.61C270.892 106.546 272.676 111.006 271.813 112.047C271.517 112.443 271.134 112.764 270.694 112.986C270.253 113.207 269.768 113.323 269.275 113.323C268.409 113.381 266.1 115.002 266.1 115.173C266.1 115.344 263.969 115.347 262.058 116.159C260.147 116.971 257.333 117.432 257.333 117.432C257.333 117.432 251.848 117.258 251.337 117.781C250.826 118.303 250.301 121.429 251.395 123.917C252.489 126.405 253.704 128.267 254.622 128.606C255.54 128.946 261.366 126.985 266.091 126.521C270.817 126.057 275.947 122.296 275.947 122.296C275.947 122.296 281.596 120.266 282.586 116.852C283.576 113.439 281.391 94.6786 281.391 94.6786C281.391 94.6786 279.705 85.9493 275.04 88.31Z" fill="white"/>
<path opacity="0.1" d="M274.922 116.11C274.922 116.11 270.592 115.24 272.099 116.69C273.606 118.14 273.597 119.41 275.441 119.352C277.286 119.294 274.922 116.11 274.922 116.11Z" fill="black"/>
<path opacity="0.1" d="M282.24 147.309C282.24 147.309 280.283 148.64 284.027 151.708C287.771 154.777 282.24 147.309 282.24 147.309Z" fill="black"/>
<path opacity="0.1" d="M278.504 158.251C278.504 158.425 277.812 164.631 280.404 166.183C282.996 167.734 278.504 158.251 278.504 158.251Z" fill="black"/>
<path d="M237.345 109.611C235.255 109.684 230.74 110.324 233.081 114.712C235.151 118.595 238.629 116 240.587 114.031C240.109 112.195 238.949 110.613 237.345 109.611Z" fill="#FFB0B1"/>
<path d="M240.613 113.996L240.699 113.906L240.613 113.996Z" fill="#FFB0B1"/>
<path opacity="0.1" d="M274.347 82.7593C272.13 84.2818 270.271 85.5665 269.907 85.8333C268.914 86.5729 267.021 90.9143 265.8 93.1299C264.827 94.9135 261.666 95.3717 260.474 95.4848L260.627 94.1594C263.337 92.9414 265.413 89.0611 265.413 89.0611L270.771 79.6243L272.615 81.3092C272.615 81.3092 273.308 81.8893 274.347 82.7593Z" fill="black"/>
<path d="M274.347 82.5853C272.13 84.1078 270.271 85.3925 269.907 85.6622C268.914 86.3989 267.021 90.7403 265.8 92.9559C264.827 94.7395 261.666 95.1977 260.474 95.3108L260.627 93.9854C263.337 92.7674 265.413 88.8871 265.413 88.8871L270.771 79.4503L272.615 81.1294C272.615 81.1294 273.308 81.7036 274.347 82.5853Z" fill="#DCE7FF"/>
<path d="M270.081 75.1959C270.082 76.9368 269.556 78.6369 268.574 80.0709C267.413 81.7664 265.686 82.9878 263.706 83.5135C261.726 84.0392 259.624 83.8344 257.781 82.9362C255.938 82.0381 254.477 80.506 253.663 78.6181C252.848 76.7302 252.734 74.6115 253.342 72.6465C253.949 70.6815 255.237 69.0002 256.973 67.9079C258.709 66.8156 260.777 66.3845 262.802 66.693C264.827 67.0014 266.675 68.0288 268.01 69.5889C269.346 71.149 270.08 73.1383 270.081 75.1959Z" fill="#FFB0B1"/>
<path opacity="0.1" d="M285.023 104.124C283.85 103.4 282.896 102.369 282.26 101.143C281.778 100.186 281.457 99.0809 280.635 98.4022C279.893 97.7932 278.903 97.6453 277.979 97.3727C274.942 96.4708 272.396 93.6867 272.301 90.5083C272.254 89.0118 272.719 87.5183 272.508 86.0363C272.389 85.1976 272.057 84.4038 271.544 83.7308C271.29 83.4089 271.011 83.1074 270.71 82.8289C270.306 82.4461 269.882 82.0749 269.512 81.6688C269.279 81.4174 269.076 81.1401 268.906 80.8423C268.768 80.5986 268.657 80.341 268.574 80.0738C267.996 78.299 268.522 76.1935 267.887 74.3984L267.852 74.2998C267.613 73.6618 267.125 73.0237 266.446 72.9744C265.768 72.9251 265.188 73.4907 264.541 73.743C263.187 74.2708 261.726 73.3717 260.598 72.4553C259.469 71.5389 258.196 70.492 256.761 70.695C255.811 70.8313 255.061 71.4809 254.186 71.8173C253.989 71.8941 253.785 71.9533 253.577 71.9942C254.317 70.1397 255.677 68.602 257.423 67.6453C259.17 66.6887 261.193 66.3728 263.146 66.752C265.099 67.1312 266.859 68.1817 268.124 69.7232C269.39 71.2646 270.082 73.2007 270.081 75.1988C270.082 75.8022 270.019 76.4039 269.893 76.9939C269.907 77.0345 269.922 77.0722 269.939 77.1128C270.274 77.9829 270.652 78.8761 270.984 79.6475L272.615 81.1323C272.615 81.1323 273.308 81.7123 274.347 82.5824C276.608 84.4964 280.513 87.8663 282.528 89.9282C284.301 91.7495 284.855 98.8083 285.023 104.124Z" fill="black"/>
<path d="M254.085 66.5189C254.498 65.675 254.703 64.7295 255.197 63.9291C255.921 62.7691 257.186 62.0267 258.485 61.5772C261.877 60.4026 269.044 58.6974 271.186 61.5772C271.608 62.1572 271.957 62.801 272.54 63.2012C272.985 63.5057 273.522 63.6362 274.01 63.8653C275.375 64.5091 276.247 65.9128 276.712 67.3454C277.176 68.778 277.315 70.3151 277.656 71.7912C278.092 73.685 278.856 75.4801 279.619 77.2636C280.516 79.3691 281.469 81.5528 283.201 83.0406C285.565 85.0706 286.088 87.9446 288.282 90.1718C290.88 92.8167 290.796 97.1813 289.457 100.647C289.281 101.102 289.081 101.578 289.151 102.062C289.22 102.546 289.578 102.987 289.916 103.373L291.336 104.982C287.976 105.797 284.174 104.034 282.609 100.94C282.127 99.9828 281.807 98.8807 280.981 98.1992C280.242 97.5902 279.249 97.4452 278.328 97.1726C275.291 96.2678 272.745 93.4808 272.65 90.3024C272.604 88.8088 273.069 87.3153 272.858 85.8362C272.741 84.9919 272.407 84.1925 271.891 83.5162C271.097 82.4751 269.899 81.7761 269.252 80.6161C268.158 78.676 268.99 76.1558 268.201 74.0736C267.959 73.4355 267.474 72.7975 266.796 72.7482C266.117 72.6989 265.537 73.2644 264.887 73.5168C263.536 74.0446 262.076 73.1484 260.947 72.2291C259.818 71.3098 258.545 70.2658 257.108 70.4717C256.158 70.6051 255.41 71.2547 254.535 71.594C253.889 71.8434 252.578 72.0667 252.012 71.5186C250.817 70.4137 253.586 67.5513 254.085 66.5189Z" fill="#591D4B"/>
<path opacity="0.1" d="M283.412 99.9828C282.927 99.0258 282.609 97.9237 281.784 97.2451C281.045 96.6361 280.052 96.4882 279.128 96.2156C276.094 95.3137 273.548 92.5267 273.45 89.3482C273.403 87.8547 273.868 86.3582 273.66 84.8792C273.539 84.0403 273.206 83.2465 272.693 82.5737C271.896 81.5325 270.698 80.8336 270.055 79.6736C268.961 77.7363 269.792 75.2162 269.001 73.131C268.761 72.4959 268.274 71.8579 267.598 71.8057C266.923 71.7535 266.337 72.3248 265.69 72.5771C264.339 73.1049 262.875 72.2059 261.749 71.2895C260.624 70.3731 259.345 69.3261 257.91 69.5291C256.96 69.6655 256.21 70.3151 255.338 70.6515C254.691 70.9009 253.378 71.1271 252.812 70.579C251.623 69.4189 254.391 66.5624 254.888 65.5357C255.3 64.6889 255.505 63.7464 256.002 62.946C256.028 62.9025 256.057 62.859 256.086 62.8155C255.714 63.1246 255.394 63.4906 255.136 63.9001C254.642 64.7005 254.437 65.6402 254.024 66.4899C253.525 67.5165 250.757 70.3818 251.949 71.5331C252.526 72.0841 253.825 71.8579 254.472 71.6085C255.338 71.2692 256.094 70.6196 257.044 70.4862C258.487 70.2803 259.758 71.3272 260.883 72.2436C262.009 73.16 263.482 74.0591 264.827 73.5312C265.473 73.2789 266.039 72.7105 266.732 72.7627C267.425 72.8149 267.887 73.45 268.138 74.0881C268.926 76.1703 268.095 78.6905 269.189 80.6306C269.835 81.7703 271.033 82.4838 271.827 83.5307C272.344 84.207 272.677 85.0064 272.794 85.8507C273.005 87.3298 272.54 88.8233 272.586 90.3168C272.682 93.5069 275.228 96.2823 278.265 97.1871C279.18 97.4597 280.179 97.6047 280.918 98.2137C281.746 98.8952 282.072 99.9973 282.546 100.954C284.11 104.049 287.912 105.812 291.272 104.997L290.603 104.237C287.69 104.281 284.743 102.616 283.412 99.9828Z" fill="black"/>
<path opacity="0.1" d="M263.51 86.7469C263.132 87.3269 262.05 90.2965 261.146 92.8892C260.3 92.5586 259.532 90.4502 259.532 90.4502L264.042 84.0063C264.503 84.6443 264.2 85.7028 263.51 86.7469Z" fill="black"/>
<path d="M263.684 86.5729C263.305 87.1529 262.223 90.1225 261.319 92.7152C260.474 92.3875 259.706 90.2762 259.706 90.2762L264.215 83.8352C264.677 84.4703 264.374 85.5317 263.684 86.5729Z" fill="#DCE7FF"/>
<path d="M237.466 116.2L234.966 108.28C234.936 108.187 234.925 108.089 234.933 107.992C234.942 107.895 234.969 107.801 235.013 107.714C235.058 107.628 235.119 107.551 235.193 107.488C235.267 107.426 235.353 107.378 235.445 107.349C235.631 107.291 235.833 107.308 236.006 107.399C236.179 107.489 236.309 107.644 236.369 107.83L238.869 115.742L238.621 117.398L237.466 116.2Z" fill="#BE8B87"/>
<path opacity="0.1" d="M235.203 107.584C235.389 107.525 235.591 107.542 235.765 107.632C235.939 107.722 236.07 107.878 236.129 108.065L238.629 115.977L238.442 117.218L238.624 117.409L238.872 115.753L236.357 107.842C236.298 107.656 236.167 107.5 235.994 107.41C235.821 107.32 235.62 107.302 235.434 107.361C235.277 107.412 235.142 107.514 235.05 107.651C235.099 107.624 235.15 107.602 235.203 107.584Z" fill="white"/>
<path d="M237.466 116.2L238.869 115.753L238.664 117.111L238.621 117.409L238.211 116.98L237.466 116.2Z" fill="#EFC8C4"/>
<path d="M238.211 116.98C238.235 116.949 238.266 116.923 238.3 116.905C238.32 116.892 238.344 116.885 238.368 116.885C238.392 116.885 238.416 116.892 238.436 116.905C238.456 116.929 238.472 116.955 238.485 116.983C238.504 117.015 238.53 117.042 238.561 117.063C238.592 117.083 238.627 117.097 238.664 117.102L238.621 117.392L238.211 116.98Z" fill="#727A9C"/>
<path d="M234.952 111.093C234.952 111.093 239.966 111.064 238.785 113.207C237.605 115.35 235.76 115.608 235.76 115.608L234.952 111.093Z" fill="#FFB0B1"/>
<path d="M203.766 14.9122H203.549C194.935 14.9122 187.317 19.4914 182.935 26.2485C178.553 19.4914 170.935 14.9122 162.32 14.9122H162.104C155.639 14.974 149.46 17.5965 144.909 22.2095C140.358 26.8226 137.804 33.0535 137.8 39.5482C137.8 47.6133 141.316 59.057 148.172 68.4735C161.235 86.4163 182.935 102.114 182.935 102.114C182.935 102.114 204.635 86.4192 217.694 68.4735C224.553 59.057 228.067 47.6133 228.067 39.5482C228.063 33.054 225.509 26.8235 220.959 22.2105C216.408 17.5976 210.23 14.9748 203.766 14.9122ZM200.668 69.854C199.687 69.8502 198.73 69.5485 197.923 68.9885C197.116 68.4285 196.496 67.6364 196.145 66.7161H190.995C190.656 66.714 190.326 66.6055 190.051 66.4059C189.776 66.2062 189.57 65.9253 189.462 65.6025L187.88 60.8144L182.874 78.386C182.777 78.7242 182.573 79.0216 182.293 79.2334C182.013 79.4452 181.672 79.5599 181.321 79.5605H181.22C180.854 79.5427 180.506 79.3994 180.233 79.1545C179.959 78.9096 179.778 78.5779 179.719 78.2149L174.56 47.0449L170.79 65.4894C170.704 65.8397 170.503 66.1509 170.22 66.3733C169.937 66.5956 169.588 66.7163 169.228 66.7161H161.974C161.757 66.7253 161.539 66.6903 161.336 66.6131C161.132 66.5358 160.946 66.418 160.789 66.2667C160.632 66.1154 160.507 65.9337 160.422 65.7326C160.336 65.5315 160.292 65.3151 160.292 65.0964C160.292 64.8777 160.336 64.6613 160.422 64.4602C160.507 64.2591 160.632 64.0774 160.789 63.9261C160.946 63.7748 161.132 63.657 161.336 63.5797C161.539 63.5025 161.757 63.4675 161.974 63.4767H167.958L173.299 38.6782C173.386 38.3116 173.598 37.9869 173.898 37.7597C174.197 37.5326 174.566 37.417 174.941 37.4327C175.316 37.4485 175.674 37.5946 175.954 37.8461C176.233 38.0976 176.417 38.4389 176.474 38.8116L181.743 70.608L186.229 54.8867C186.322 54.5556 186.52 54.2637 186.792 54.0547C187.064 53.8456 187.396 53.7305 187.738 53.7267H187.77C188.109 53.7268 188.44 53.8345 188.715 54.0345C188.99 54.2345 189.194 54.5165 189.3 54.8403L192.161 63.4854H196.081C196.36 62.6347 196.867 61.8779 197.547 61.2986C198.227 60.7192 199.053 60.3398 199.934 60.2022C200.815 60.0646 201.716 60.1743 202.539 60.519C203.362 60.8637 204.074 61.43 204.597 62.1556C205.119 62.8812 205.432 63.7377 205.501 64.6306C205.569 65.5235 205.391 66.4182 204.986 67.2158C204.58 68.0134 203.963 68.6829 203.203 69.1505C202.443 69.6181 201.568 69.8656 200.677 69.8656L200.668 69.854Z" fill="#2495F3"/>
</g>
<defs>
<linearGradient id="paint0_linear_136_170" x1="102.864" y1="224.718" x2="102.864" y2="46.2648" gradientUnits="userSpaceOnUse">
<stop stop-color="#808080" stop-opacity="0.25"/>
<stop offset="0.54" stop-color="#808080" stop-opacity="0.12"/>
<stop offset="1" stop-color="#808080" stop-opacity="0.1"/>
</linearGradient>
<linearGradient id="paint1_linear_136_170" x1="257.913" y1="222.461" x2="257.913" y2="59.4775" gradientUnits="userSpaceOnUse">
<stop stop-color="#808080" stop-opacity="0.25"/>
<stop offset="0.54" stop-color="#808080" stop-opacity="0.12"/>
<stop offset="1" stop-color="#808080" stop-opacity="0.1"/>
</linearGradient>
<clipPath id="clip0_136_170">
<rect width="319" height="426" fill="white"/>
</clipPath>
</defs>
</svg>
