<?xml version="1.0" encoding="iso-8859-1"?>
<!-- Generator: Adobe Illustrator 16.0.0, SVG Export Plug-In . SVG Version: 6.00 Build 0)  -->
<!DOCTYPE svg PUBLIC "-//W3C//DTD SVG 1.1//EN" "http://www.w3.org/Graphics/SVG/1.1/DTD/svg11.dtd">
<svg version="1.1" id="Capa_1" xmlns="http://www.w3.org/2000/svg" xmlns:xlink="http://www.w3.org/1999/xlink" x="0px" y="0px"
	 width="350.244px" height="350.244px" viewBox="0 0 350.244 350.244" style="enable-background:new 0 0 350.244 350.244;"
	 xml:space="preserve">
<g>
	<g>
		<path d="M75.246,224.219c-18.227,0-32.997,14.766-32.997,32.994s14.771,32.992,32.997,32.992
			c18.232,0,32.999-14.764,32.999-32.992C108.245,238.985,93.478,224.219,75.246,224.219z M75.246,271.557
			c-7.923,0-14.343-6.42-14.343-14.344c0-7.928,6.419-14.345,14.343-14.345s14.348,6.417,14.348,14.345
			C89.594,265.137,83.169,271.557,75.246,271.557z"/>
		<path d="M313.898,172.053c-12.098-3.146-19.02-5.123-23.771-14.298l-15.887-32.164c-4.754-9.175-17.094-16.683-27.428-16.683
			h-24.648V79.052c0-10.457-8.557-19.013-19.014-19.013H19.013C8.555,60.039,0,68.595,0,79.052v161.141
			c0,10.457,8.556,19.014,19.013,19.014h13.286c-0.03-0.662-0.051-1.326-0.051-1.994c0-23.707,19.289-42.992,42.997-42.992
			c23.71,0,42.999,19.287,42.999,42.992c0,0.668-0.02,1.332-0.05,1.994h84.957c1.07,0,2.115-0.1,3.139-0.271
			c-0.021-0.572-0.044-1.145-0.044-1.723c0-23.707,19.288-42.992,42.997-42.992s42.998,19.287,42.998,42.992
			c0,0.668-0.02,1.332-0.051,1.994h39.268c10.336,0,18.787-8.455,18.787-18.787v-35.696
			C350.244,174.663,323.943,174.663,313.898,172.053z M159.801,156.37c0,5.414-4.43,9.843-9.843,9.843h-20.422v20.421
			c0,5.414-4.429,9.844-9.843,9.844H102.47c-5.414,0-9.843-4.43-9.843-9.844v-20.421H72.205c-5.414,0-9.843-4.429-9.843-9.843
			v-17.223c0-5.414,4.429-9.843,9.843-9.843h20.422v-20.422c0-5.414,4.429-9.843,9.843-9.843h17.223
			c5.414,0,9.843,4.429,9.843,9.843v20.422h20.422c5.413,0,9.843,4.429,9.843,9.843V156.37z M222.164,170.381V121.97h17.973
			c9.191,0,20.174,6.68,24.402,14.844l14.135,28.619c1.035,1.998,2.188,3.608,3.494,4.948H222.164z"/>
		<path d="M249.242,224.219c-18.227,0-32.997,14.766-32.997,32.994s14.771,32.992,32.997,32.992
			c18.232,0,32.998-14.764,32.998-32.992C282.24,238.985,267.475,224.219,249.242,224.219z M249.242,271.557
			c-7.924,0-14.344-6.42-14.344-14.344c0-7.928,6.42-14.345,14.344-14.345s14.348,6.417,14.348,14.345
			C263.59,265.137,257.166,271.557,249.242,271.557z"/>
	</g>
</g>
<g>
</g>
<g>
</g>
<g>
</g>
<g>
</g>
<g>
</g>
<g>
</g>
<g>
</g>
<g>
</g>
<g>
</g>
<g>
</g>
<g>
</g>
<g>
</g>
<g>
</g>
<g>
</g>
<g>
</g>
</svg>
